<?xml version="1.0" encoding="UTF-8"?>
<svg width="96px" height="96px" viewBox="0 0 96 96" version="1.1" xmlns="http://www.w3.org/2000/svg" xmlns:xlink="http://www.w3.org/1999/xlink">
    <title>默认头像</title>
    <defs>
        <circle id="path-1" cx="48" cy="48" r="48"></circle>
    </defs>
    <g id="web客户端" stroke="none" stroke-width="1" fill="none" fill-rule="evenodd">
        <g id="空状态" transform="translate(-92.000000, -330.000000)">
            <g id="默认头像" transform="translate(92.000000, 330.000000)">
                <mask id="mask-2" fill="white">
                    <use xlink:href="#path-1"></use>
                </mask>
                <use id="蒙版" fill="#F2F3F3" xlink:href="#path-1"></use>
                <g id="人物备份-2" mask="url(#mask-2)">
                    <g transform="translate(4.000000, 7.000000)">
                        <path d="M22.9052608,53.4963396 L44,52 L44,52 L65.0947392,53.4963396 C72.8056683,54.0433087 79.3063228,59.4526339 81.2455449,66.9357496 L87.6758443,91.7491403 C87.8143903,92.2837649 87.4933052,92.8294774 86.9586806,92.9680234 C86.8767508,92.9892553 86.792457,93 86.7078208,93 L1.29217917,93 C0.739894421,93 0.292179171,92.5522847 0.292179171,92 C0.292179171,91.9153638 0.302923918,91.8310701 0.324155724,91.7491403 L6.75445514,66.9357496 C8.6936772,59.4526339 15.1943317,54.0433087 22.9052608,53.4963396 Z" id="矩形" fill="#3893FA"></path>
                        <path d="M32,52 L55,52 C57.7614237,52 60,54.2385763 60,57 L60,60.5 C60,61.3284271 59.3284271,62 58.5,62 L28.5,62 C27.6715729,62 27,61.3284271 27,60.5 L27,57 C27,54.2385763 29.2385763,52 32,52 Z" id="矩形" fill="#2D68EB"></path>
                        <rect id="矩形" fill="#ECC495" x="36" y="38" width="15" height="24" rx="3"></rect>
                        <polygon id="三角形" fill="#FFFFFF" transform="translate(43.533203, 74.264282) scale(1, -1) translate(-43.533203, -74.264282) " points="49 55.5285645 53 93 44 87.8089808 34.0664063 93 39 55.5285645"></polygon>
                        <rect id="矩形" fill="#2D68EB" x="62" y="78" width="9" height="3" rx="1.5"></rect>
                        <polygon id="多边形" fill="#FE9B25" points="43.5 61 45.8776413 62.7274575 44.9694631 65.5225425 42.0305369 65.5225425 41.1223587 62.7274575"></polygon>
                        <polygon id="矩形" fill="#FE9B25" points="41.9716797 66 45.0732422 66 49 93 39 93"></polygon>
                        <polygon id="路径-2" fill="#2D68EB" points="33.7028571 52 39 93 31.3301116 71.1022891 34.943471 68.4952546 30.1880357 68.4952546 27 61.1736527"></polygon>
                        <polygon id="路径-2备份" fill="#2D68EB" transform="translate(54.500000, 72.500000) scale(-1, 1) translate(-54.500000, -72.500000) " points="55.9183673 52 60 93 53.4075255 71.1022891 57.2311862 68.4952546 52.1989796 68.4952546 49 60.9784023"></polygon>
                        <g id="头" stroke-width="1" fill="none" transform="translate(21.797036, 0.000000)">
                            <rect id="矩形" fill="#373C48" x="2.64740857" y="0" width="39.1111111" height="36.0829312" rx="17"></rect>
                            <path d="M22.5775135,12.5555311 L38.2610561,13.7336935 C39.3625221,13.8164366 40.1883601,14.7764278 40.105617,15.8778938 C40.1047134,15.8899225 40.103701,15.9019428 40.1025799,15.9139532 L37.9484839,38.9910245 C37.6343939,42.355906 36.0003154,45.4594004 33.4037647,47.6225012 L32.1304964,48.683219 C30.333526,50.1802158 28.068685,51 25.72986,51 L18.6760682,51 C16.3372433,51 14.0724023,50.1802158 12.2754318,48.683219 L11.0021636,47.6225012 C8.4056129,45.4594004 6.77153436,42.355906 6.45744434,38.9910245 L4.30334838,15.9139532 C4.20069019,14.8141645 5.00902414,13.8393888 6.1088128,13.7367306 C6.12082317,13.7356095 6.13284345,13.7345971 6.14487215,13.7336935 L21.8284148,12.5555311 C22.0777631,12.5367998 22.3281652,12.5367998 22.5775135,12.5555311 Z" id="多边形" fill="#ECC495"></path>
                            <path d="M27.3438303,9.62211498 C34.876146,9.62211498 38.0057711,10.9905272 38.9658297,12.8914004 C39.0790013,12.8747801 39.1955532,12.8663449 39.3140752,12.8663449 C40.6641046,12.8663449 41.7585197,13.96076 41.7585197,15.3107894 L41.7585197,26.4219005 C41.7585197,27.7719299 40.6641046,28.8663449 39.3140752,28.8663449 C37.9640458,28.8663449 36.8696308,27.7719299 36.8696308,26.4219005 L36.870654,16.9121673 C33.8766791,18.3095845 28.4280236,19.24423 22.2029641,19.24423 C15.9779047,19.24423 10.5292492,18.3095845 7.53527423,16.9121673 L7.53629746,26.4219005 C7.53629746,27.7719299 6.4418824,28.8663449 5.09185302,28.8663449 C3.74182363,28.8663449 2.64740857,27.7719299 2.64740857,26.4219005 L2.64740857,15.3107894 C2.64740857,13.96076 3.74182363,12.8663449 5.09185302,12.8663449 C5.47346132,12.8663449 5.83464593,12.9537892 6.15646237,13.1097332 C8.24186286,11.8205967 13.1374054,10.7525883 18.4413687,10.1509746 L19.1589389,10.0726887 C21.9174452,9.78360271 24.7562739,9.62211498 27.3438303,9.62211498 Z" id="形状结合" fill="#373C48"></path>
                            <path d="M38.9798058,37.3780152 C40.9358482,37.9021351 43.2183989,35.7262826 44.0780255,32.5181125 C44.9376521,29.3099424 44.0488315,26.2843234 42.0927891,25.7602035 C40.1367467,25.2360835 37.854196,27.411936 36.9945694,30.6201061 C36.1349428,33.8282763 37.0237634,36.8538952 38.9798058,37.3780152 Z M5.42612243,37.3780152 C7.3821648,36.8538952 8.27098541,33.8282763 7.41135882,30.6201061 C6.55173223,27.411936 4.26918154,25.2360835 2.31313916,25.7602035 C0.357096783,26.2843234 -0.531723828,29.3099424 0.327902764,32.5181125 C1.18752936,35.7262826 3.47008005,37.9021351 5.42612243,37.3780152 Z" id="形状结合" fill="#ECC495"></path>
                        </g>
                    </g>
                </g>
            </g>
        </g>
    </g>
</svg>