<?xml version="1.0" encoding="UTF-8"?>
<svg width="14px" height="16px" viewBox="0 0 14 16" version="1.1" xmlns="http://www.w3.org/2000/svg" xmlns:xlink="http://www.w3.org/1999/xlink">
    <title>ICON/通用/企业/认证完成</title>
    <defs>
        <linearGradient x1="18.8804027%" y1="14.0563965%" x2="78.2413283%" y2="78.5400391%" id="linearGradient-1">
            <stop stop-color="#FED38D" offset="0%"></stop>
            <stop stop-color="#F0AF40" offset="100%"></stop>
        </linearGradient>
        <linearGradient x1="70.9616385%" y1="85.9375%" x2="22.741234%" y2="0%" id="linearGradient-2">
            <stop stop-color="#FAD979" offset="0%"></stop>
            <stop stop-color="#F2B144" offset="100%"></stop>
        </linearGradient>
    </defs>
    <g id="web客户端" stroke="none" stroke-width="1" fill="none" fill-rule="evenodd">
        <g id="1-首页" transform="translate(-1077.000000, -263.000000)">
            <g id="内容" transform="translate(236.000000, 80.000000)">
                <g id="用户信息备份-3" transform="translate(816.000000, 0.000000)">
                    <g id="企业" transform="translate(24.000000, 176.000000)">
                        <g id="编组" transform="translate(0.000000, 7.000000)">
                            <rect id="矩形" fill-opacity="0" fill="#FFFFFF" x="0" y="0" width="16" height="16"></rect>
                            <g id="认证企业" fill-rule="nonzero">
                                <rect id="矩形" fill="#000000" opacity="0" x="0" y="0" width="16" height="16"></rect>
                                <path d="M8.00007913,0.25 C9.08034446,0.25 10.160604,0.469710004 11.1726281,0.907546734 L11.1726281,0.907546734 L14.7500893,2.45637632 L14.7500896,6.88630875 C14.7515992,7.90284974 14.5784058,8.91331946 14.2363898,9.87096511 C13.9014038,10.8134939 13.4217831,11.6966502 12.8131687,12.4898421 C12.204551,13.294739 11.4712116,13.9962235 10.6388969,14.5637799 C9.83521131,15.1119499 8.94127339,15.5116549 7.99825397,15.7428047 C7.05252822,15.5115599 6.15712176,15.1103299 5.35073343,14.5593723 C4.51982472,13.9902151 3.78477749,13.290194 3.17539402,12.4842883 C2.57243831,11.6940509 2.09585387,10.8139819 1.76363961,9.8737284 C1.42179437,8.91656173 1.2470383,7.90774242 1.25003906,6.8890625 L1.25003906,6.8890625 L1.25003906,2.45641266 L4.82619761,0.909009558 C5.83820375,0.469665577 6.9198998,0.25 8.00007913,0.25 Z" id="形状" stroke="url(#linearGradient-2)" stroke-width="0.5" fill="url(#linearGradient-1)"></path>
                                <path d="M12.54,6.36 L12.78,5.51 C12.1933333,5.31666667 11.6583333,5.00333333 11.175,4.57 C10.6916667,4.13666667 10.2033333,3.6 9.71,2.96 C9.62333333,2.84 9.50666667,2.78 9.36,2.78 L9.36,2.78 L6.63,2.78 C6.48333333,2.78 6.36666667,2.84 6.28,2.96 C5.77333333,3.60666667 5.285,4.14333333 4.815,4.57 C4.345,4.99666667 3.81,5.31 3.21,5.51 L3.21,5.51 L3.44,6.36 C4.12,6.16666667 4.75833333,5.79666667 5.355,5.25 C5.95166667,4.70333333 6.45,4.17 6.85,3.65 L6.85,3.65 L9.14,3.65 C9.5,4.13666667 9.98666667,4.66166667 10.6,5.225 C11.2133333,5.78833333 11.86,6.16666667 12.54,6.36 L12.54,6.36 Z M12.27,11.22 L12.27,10.35 L8.53,10.35 L8.53,7.94 L11.27,7.94 L11.27,7.07 L8.53,7.07 L8.53,5.17 L7.66,5.17 L7.66,10.35 L5.8,10.35 L5.8,6.68 L4.93,6.68 L4.93,10.35 L3.69,10.35 L3.69,11.22 L12.27,11.22 Z" id="企" fill="#FFFFFF"></path>
                            </g>
                        </g>
                    </g>
                </g>
            </g>
        </g>
    </g>
</svg>