<?xml version="1.0" encoding="UTF-8"?>
<svg width="58px" height="16px" viewBox="0 0 58 16" version="1.1" xmlns="http://www.w3.org/2000/svg" xmlns:xlink="http://www.w3.org/1999/xlink">
    <title>实名 icon</title>
    <g id="控件" stroke="none" stroke-width="1" fill="none" fill-rule="evenodd">
        <g id="实名-icon">
            <rect id="矩形" stroke="#67C23A" stroke-width="0.5" x="0.25" y="0.25" width="57.5" height="15.5" rx="7.75"></rect>
            <text id="已实名" font-family="zihun59hao-chuangcuhei" font-size="11" font-weight="normal" line-spacing="11" fill="#67C23A">
                <tspan x="20" y="12.3">已实名</tspan>
            </text>
            <g id="编组" transform="translate(4.000000, 0.000000)">
                <rect id="矩形" fill-opacity="0" fill="#FFFFFF" x="0" y="0" width="16" height="16"></rect>
                <path d="M8.67106778,1.94914197 L9.932,3.21 L11.7170803,3.21084167 C12.2693651,3.21084167 12.7170803,3.65855692 12.7170803,4.21084167 L12.717,5.995 L13.97878,7.25685422 C14.3693043,7.64737851 14.3693043,8.28054349 13.97878,8.67106778 L12.717,9.932 L12.7170803,11.7170803 C12.7170803,12.2693651 12.2693651,12.7170803 11.7170803,12.7170803 L9.932,12.717 L8.67106778,13.97878 C8.28054349,14.3693043 7.64737851,14.3693043 7.25685422,13.97878 L5.995,12.717 L4.21084167,12.7170803 C3.65855692,12.7170803 3.21084167,12.2693651 3.21084167,11.7170803 L3.21,9.932 L1.94914197,8.67106778 C1.55861767,8.28054349 1.55861767,7.64737851 1.94914197,7.25685422 L3.21,5.995 L3.21084167,4.21084167 C3.21084167,3.65855692 3.65855692,3.21084167 4.21084167,3.21084167 L5.995,3.21 L7.25685422,1.94914197 C7.64737851,1.55861767 8.28054349,1.55861767 8.67106778,1.94914197 Z" id="形状结合" fill="#67C23A"></path>
                <g id="gou1" transform="translate(4.000000, 4.000000)" fill="#FFFFFF" fill-rule="nonzero">
                    <rect id="矩形" opacity="0" x="0" y="0" width="8" height="8"></rect>
                    <polygon id="路径" points="3.33333594 5.05733594 6.39733594 1.993 6.869 2.46432813 3.33333594 6 1.212 3.87867188 1.68332812 3.40733594"></polygon>
                </g>
            </g>
        </g>
    </g>
</svg>