<?xml version="1.0" encoding="UTF-8"?>
<svg width="64px" height="14px" viewBox="0 0 64 14" version="1.1" xmlns="http://www.w3.org/2000/svg" xmlns:xlink="http://www.w3.org/1999/xlink">
    <title>金牌会员</title>
    <defs>
        <path d="M7,0.777777778 C3.56356156,0.777777778 0.777777778,3.56356156 0.777777778,7 C0.777777778,10.4364384 3.56356156,13.2222222 7,13.2222222 C10.4364384,13.2222222 13.2222222,10.4364384 13.2222222,7 C13.2222222,5.34976406 12.5666685,3.76711749 11.3997755,2.60022447 C10.2328825,1.43333145 8.65023594,0.777777778 7,0.777777778 Z M10.5127556,4.75657778 L6.30155556,10.1409778 C6.25751908,10.1972465 6.19007408,10.2301661 6.11862222,10.2302667 L4.76404444,10.2302667 C4.63554205,10.2300958 4.53136478,10.1260576 4.53102222,9.99755556 L4.53102222,5.68555556 C4.53085084,5.55710381 4.42676285,5.45301583 4.29831111,5.45284444 L3.62973333,5.45284444 C3.5014536,5.45250145 3.39764444,5.34841353 3.39764444,5.22013333 L3.39764444,4.61191111 C3.39789148,4.55027464 3.42261365,4.49126084 3.46637225,4.44785231 C3.51013084,4.40444378 3.56934132,4.38019641 3.63097778,4.38044256 L5.83737778,4.38044256 C5.96590058,4.38044256 6.07008889,4.48463276 6.07008889,4.61315556 L6.07008889,6.47671111 C6.06995749,6.57451106 6.13098926,6.6619574 6.22283387,6.69556418 C6.31467847,6.72917095 6.41773532,6.70176613 6.48075556,6.62697778 L8.30791111,4.4632 C8.35220692,4.41083117 8.4172766,4.38057149 8.48586667,4.38044256 L10.3292,4.38044256 C10.4182595,4.38033159 10.4995728,4.43105766 10.5386317,4.51109524 C10.5776905,4.59113282 10.567644,4.6864431 10.5127556,4.75657778 L10.5127556,4.75657778 Z" id="path-1"></path>
        <filter x="-4.0%" y="-4.0%" width="108.0%" height="108.0%" filterUnits="objectBoundingBox" id="filter-2">
            <feGaussianBlur stdDeviation="0.5" in="SourceAlpha" result="shadowBlurInner1"></feGaussianBlur>
            <feOffset dx="0" dy="0" in="shadowBlurInner1" result="shadowOffsetInner1"></feOffset>
            <feComposite in="shadowOffsetInner1" in2="SourceAlpha" operator="arithmetic" k2="-1" k3="1" result="shadowInnerInner1"></feComposite>
            <feColorMatrix values="0 0 0 0 0.952871382   0 0 0 0 0.781746805   0 0 0 0 0.526389062  0 0 0 0.502950175 0" type="matrix" in="shadowInnerInner1"></feColorMatrix>
        </filter>
    </defs>
    <g id="控件" stroke="none" stroke-width="1" fill="none" fill-rule="evenodd">
        <g id="ICON/会员等级/金牌" transform="translate(0.000000, -1.000000)">
            <g id="金牌会员" transform="translate(0.000000, 1.000000)">
                <g id="会员等级">
                    <circle id="椭圆形" fill="#F7DDAE" cx="7" cy="7" r="7"></circle>
                    <circle id="椭圆形" fill="#FFFFFF" cx="7" cy="7" r="5.44444444"></circle>
                    <g id="形状" fill-rule="nonzero">
                        <use fill="#ECC98F" xlink:href="#path-1"></use>
                        <use fill="black" fill-opacity="1" filter="url(#filter-2)" xlink:href="#path-1"></use>
                    </g>
                </g>
                <g transform="translate(16.480000, 1.368000)" fill="#DE9E32" fill-rule="nonzero" id="形状">
                    <path d="M6.048,9.78 L10.584,9.78 L10.584,10.836 L0.444,10.836 L0.444,9.78 L4.992,9.78 L4.992,6.924 L1.176,6.924 L1.176,5.868 L4.992,5.868 L4.992,4.644 L2.052,4.644 L2.052,3.744 C1.46,4.136 0.932,4.452 0.468,4.692 L0,3.756 C0.792,3.332 1.548,2.842 2.268,2.286 C2.988,1.73 3.712,1.1 4.44,0.396 C4.584,0.284 4.716,0.228 4.836,0.228 L6.288,0.228 C6.44,0.228 6.572,0.284 6.684,0.396 C8.14,1.86 9.592,2.98 11.04,3.756 L10.56,4.692 C10.048,4.428 9.516,4.104 8.964,3.72 L8.964,4.644 L6.048,4.644 L6.048,5.868 L9.864,5.868 L9.864,6.924 L6.048,6.924 L6.048,9.78 Z M5.04,1.296 C4.76,1.576 4.372,1.928 3.876,2.352 C3.38,2.776 2.84,3.192 2.256,3.6 L8.784,3.6 C7.84,2.928 6.936,2.16 6.072,1.296 L5.04,1.296 Z M3.564,9.396 L2.568,9.696 L1.932,7.596 L2.928,7.296 L3.564,9.396 Z M7.464,9.396 L8.1,7.296 L9.108,7.596 L8.472,9.696 L7.464,9.396 Z"></path>
                    <path d="M23.148,8.904 L20.892,8.904 L20.892,10.98 L19.836,10.98 L19.836,8.904 L16.404,8.904 L16.404,7.848 L17.232,7.848 L16.872,7.128 C17.288,6.888 17.656,6.608 17.976,6.288 L17.268,6.288 C17.124,6.288 17.002,6.238 16.902,6.138 C16.802,6.038 16.752,5.916 16.752,5.772 L16.752,1.488 C16.752,1.344 16.802,1.22 16.902,1.116 C17.002,1.012 17.124,0.96 17.268,0.96 L18.228,0.96 L18.888,0 L19.752,0.588 L19.5,0.96 L22.176,0.96 C22.32,0.96 22.442,1.012 22.542,1.116 C22.642,1.22 22.692,1.344 22.692,1.488 L22.692,5.772 C22.692,5.916 22.642,6.038 22.542,6.138 C22.442,6.238 22.32,6.288 22.176,6.288 L19.368,6.288 C18.936,6.896 18.388,7.416 17.724,7.848 L19.836,7.848 L19.836,6.6 L20.892,6.6 L20.892,7.848 L23.148,7.848 L23.148,8.904 Z M15.528,5.244 C15.68,5.244 15.806,5.294 15.906,5.394 C16.006,5.494 16.056,5.62 16.056,5.772 L16.056,10.98 L15.012,10.98 L15.012,6.288 L13.86,6.288 L13.86,7.884 C13.86,8.46 13.752,9.02 13.536,9.564 C13.32,10.108 13.02,10.604 12.636,11.052 L11.88,10.332 C12.168,9.98 12.394,9.592 12.558,9.168 C12.722,8.744 12.804,8.316 12.804,7.884 L12.804,0.648 L13.86,0.648 L13.86,3.156 L14.736,3.156 L14.736,0.456 L15.78,0.456 L15.78,3.156 L16.512,3.156 L16.512,4.212 L13.86,4.212 L13.86,5.244 L15.528,5.244 Z M17.796,2.016 L17.796,3.108 L19.188,3.108 L19.188,2.016 L17.796,2.016 Z M21.648,2.016 L20.244,2.016 L20.244,3.108 L21.648,3.108 L21.648,2.016 Z M17.796,5.244 L18.768,5.244 C18.96,4.9 19.088,4.536 19.152,4.152 L17.796,4.152 L17.796,5.244 Z M21.648,5.244 L21.648,4.152 L20.22,4.152 C20.172,4.528 20.076,4.892 19.932,5.244 L21.648,5.244 Z"></path>
                    <path d="M31.512,0.396 C32.064,1.116 32.618,1.726 33.174,2.226 C33.73,2.726 34.344,3.092 35.016,3.324 L34.728,4.332 C33.944,4.108 33.202,3.678 32.502,3.042 C31.802,2.406 31.24,1.8 30.816,1.224 L28.224,1.224 C27.744,1.84 27.166,2.456 26.49,3.072 C25.814,3.688 25.088,4.108 24.312,4.332 L24.024,3.324 C24.712,3.092 25.33,2.728 25.878,2.232 C26.426,1.736 26.976,1.124 27.528,0.396 C27.576,0.332 27.64,0.28 27.72,0.24 C27.8,0.2 27.88,0.18 27.96,0.18 L31.08,0.18 C31.168,0.18 31.25,0.2 31.326,0.24 C31.402,0.28 31.464,0.332 31.512,0.396 Z M32.76,3.3 L32.76,4.356 L26.28,4.356 L26.28,3.3 L32.76,3.3 Z M32.064,6.984 L34.404,10.284 L33.552,10.884 L32.748,9.756 C31.828,10.18 30.64,10.4 29.184,10.416 L25.632,10.416 C25.488,10.416 25.364,10.366 25.26,10.266 C25.156,10.166 25.104,10.04 25.104,9.888 L25.104,9.636 C25.104,9.452 25.172,9.312 25.308,9.216 C26.124,8.56 26.956,7.692 27.804,6.612 L24.84,6.612 L24.84,5.556 L34.188,5.556 L34.188,6.612 L29.136,6.612 C28.272,7.748 27.472,8.668 26.736,9.372 L29.184,9.372 C29.76,9.364 30.288,9.326 30.768,9.258 C31.248,9.19 31.7,9.068 32.124,8.892 L31.2,7.596 L32.064,6.984 Z"></path>
                    <path d="M38.136,3.684 C37.992,3.684 37.87,3.632 37.77,3.528 C37.67,3.424 37.62,3.3 37.62,3.156 L37.62,0.876 C37.62,0.732 37.67,0.61 37.77,0.51 C37.87,0.41 37.992,0.36 38.136,0.36 L44.592,0.36 C44.744,0.36 44.87,0.41 44.97,0.51 C45.07,0.61 45.12,0.732 45.12,0.876 L45.12,3.156 C45.12,3.3 45.07,3.424 44.97,3.528 C44.87,3.632 44.744,3.684 44.592,3.684 L38.136,3.684 Z M38.664,2.64 L44.076,2.64 L44.076,1.404 L38.664,1.404 L38.664,2.64 Z M38.136,8.664 L37.092,8.664 L37.092,4.944 C37.092,4.792 37.142,4.666 37.242,4.566 C37.342,4.466 37.468,4.416 37.62,4.416 L45.288,4.416 C45.44,4.416 45.568,4.466 45.672,4.566 C45.776,4.666 45.828,4.792 45.828,4.944 L45.828,8.664 L44.76,8.664 L44.76,5.46 L38.136,5.46 L38.136,8.664 Z M46.188,10.68 L41.448,8.604 C40.936,9.172 40.192,9.63 39.216,9.978 C38.24,10.326 37.38,10.568 36.636,10.704 L36.432,9.684 C37.088,9.556 37.766,9.37 38.466,9.126 C39.166,8.882 39.752,8.604 40.224,8.292 C40.696,7.98 40.932,7.672 40.932,7.368 L40.932,5.772 L41.976,5.772 L41.976,7.368 C41.976,7.44 41.968,7.54 41.952,7.668 L46.608,9.708 L46.188,10.68 Z"></path>
                </g>
            </g>
        </g>
    </g>
</svg>