<?xml version="1.0" encoding="UTF-8"?>
<svg width="200px" height="45px" viewBox="0 0 200 45" version="1.1" xmlns="http://www.w3.org/2000/svg" xmlns:xlink="http://www.w3.org/1999/xlink">
    <title>通用/ICON/LOGO/白色</title>
    <g id="登录" stroke="none" stroke-width="1" fill="none" fill-rule="evenodd">
        <g transform="translate(-360.000000, -110.000000)" fill="#FFFFFF" fill-rule="nonzero" id="编组">
            <g transform="translate(360.000000, 110.000000)" id="通用/ICON/LOGO/白色">
                <path d="M30.3487927,35.6191875 C30.6208063,35.6191875 30.8816487,35.729121 31.0739329,35.9245945 C31.2662172,36.1200681 31.3740991,36.3851426 31.3740991,36.6615 L31.3740991,43.9576875 C31.374252,44.533158 30.9152178,44.9998059 30.3487927,45 L23.1716479,45 C22.6051845,44.999767 22.1461503,44.5330562 22.1463414,43.9575469 L22.1463414,36.6613594 C22.1463414,36.0859551 22.605288,35.6194131 23.1716479,35.6191875 L30.3487927,35.6191875 Z M122.986164,34.9176136 L124.842016,40.0571698 L126.560905,34.9176136 L128.123874,34.9176136 L125.022451,43.1874113 L125.003926,43.2322509 C124.894178,43.487425 124.762684,43.7323717 124.610945,43.9642962 C124.418381,44.2575778 124.166563,44.5058805 123.872223,44.6927041 C123.557131,44.8980673 123.161083,45.000498 122.68408,44.9999982 C122.560018,44.9981453 122.436218,44.9878372 122.313515,44.9691417 L122.246083,44.9589195 L122.188841,44.9498262 L122.136106,44.9407328 C122.127646,44.9392277 122.119124,44.9377226 122.111405,44.9362175 L122.064784,44.9273123 C122.057929,44.9258072 122.050272,44.9243021 122.043356,44.9227343 L122.003589,44.9138291 L121.968391,44.9049239 C121.95777,44.9019137 121.946964,44.8990916 121.937084,44.8960187 L121.923313,44.8916915 L121.872801,44.8748218 L121.865144,43.7585358 L121.989078,43.7780395 C122.090683,43.7920226 122.193138,43.798666 122.295669,43.7979194 C122.727923,43.7979194 123.059524,43.7186506 123.292076,43.5626841 C123.516849,43.41186 123.707967,43.1334784 123.861787,42.7250933 L123.875372,42.6864623 L124.148433,41.9907904 L121.394914,34.9176136 L122.986164,34.9176136 Z M43.2675149,35.6191875 C43.8339018,35.6194205 44.292874,36.0860683 44.2926829,36.6615 L44.2926829,43.9576875 C44.2928358,44.533158 43.8338016,44.9998059 43.2673765,45 L36.0903009,45 C35.5238375,44.999767 35.0648033,44.5330562 35.0649944,43.9575469 L35.0649944,36.6613594 C35.0649944,36.3850328 35.1729315,36.1200016 35.3652138,35.9245697 C35.557496,35.7291377 35.8183177,35.6193138 36.0903009,35.6191875 L43.2675149,35.6191875 Z M13.8414635,41.2476328 C14.0862807,41.2476328 14.3210532,41.3465266 14.4941197,41.5224491 C14.6671862,41.6983716 14.7643656,41.9369451 14.7642739,42.1856719 L14.7642739,44.0618203 C14.7643473,44.3105349 14.6671597,44.5490903 14.4940952,44.7249976 C14.3210307,44.9009049 14.0862687,44.9997891 13.8414635,44.9997891 L11.995912,44.9997891 C11.486159,44.9995949 11.0730561,44.5796433 11.0731708,44.06175 L11.0731708,42.1856016 C11.0730561,41.6677197 11.4861702,41.2477881 11.995912,41.2476328 L13.8414635,41.2476328 Z M19.3780488,41.2476328 C19.622854,41.2476887 19.8576088,41.3465535 20.0306603,41.522474 C20.2037118,41.6983945 20.3008818,41.9369573 20.30079,42.1856719 L20.30079,44.0618203 C20.3008634,44.3105227 20.2036853,44.5490675 20.0306358,44.7249727 C19.8575863,44.900878 19.622842,44.9997331 19.3780488,44.9997891 L17.5324973,44.9997891 C17.0227444,44.9995949 16.6096415,44.5796433 16.6097561,44.06175 L16.6097561,42.1856016 C16.6096415,41.6677197 17.0227556,41.2477881 17.5324973,41.2476328 L19.3780488,41.2476328 Z M0.922741264,43.1236406 C1.42156069,43.1237132 1.83006258,43.5264385 1.84513638,44.0329922 L1.8455517,44.0616797 C1.84575,44.5685094 1.44953618,44.9837865 0.950908642,44.9993672 L0.922741264,44.9997891 C0.423937349,44.9996405 0.0154875358,44.5969052 0.000415353061,44.0903672 L7.54789795e-08,44.06175 C-0.000133727904,43.5532628 0.39861062,43.1372972 0.898933947,43.1239922 L0.922741264,43.1236406 Z M4.6138443,43.1236406 C5.11266373,43.1237132 5.52116562,43.5264385 5.53623942,44.0329922 L5.53665473,44.0616797 C5.53685303,44.5685094 5.14063921,44.9837865 4.64201168,44.9993672 L4.6138443,44.9997891 C4.11504038,44.9996405 3.70659057,44.5969052 3.69151839,44.0903672 L3.69110311,44.06175 C3.69096931,43.5532628 4.08971365,43.1372972 4.59003698,43.1239922 L4.6138443,43.1236406 Z M8.30487813,43.1236406 C8.80367069,43.1237512 9.21213106,43.5264657 9.22720404,44.0329922 L9.22761936,44.0616797 C9.2278188,44.5684829 8.83164585,44.9837493 8.3330455,44.9993672 L8.30487813,44.9997891 C7.80607421,44.9996405 7.3976244,44.5969052 7.38255221,44.0903672 L7.38213692,44.06175 C7.38196559,43.5532744 7.78068961,43.1372978 8.2810016,43.1239922 L8.30487813,43.1236406 Z M58.7639328,14.0528672 L65.4434078,18.1269141 C66.0611796,18.5038053 66.4390243,19.1822951 66.4390243,19.9143984 L66.4390243,42.9152344 C66.4393301,44.0661252 65.5212816,44.9993693 64.3884806,44.9997187 L49.0090231,44.9997187 C48.4425979,44.9997187 47.9837167,44.5328768 47.9837167,43.9574062 L47.9837167,36.6612187 C47.9837167,36.0857643 48.4426138,35.6191392 49.0090231,35.6189062 L56.3910907,35.6189062 C56.8442255,35.6187898 57.2114815,35.2455115 57.2114051,34.7851406 L57.2114051,14.9466797 C57.211175,14.5713443 57.4097356,14.2249132 57.7311532,14.0398685 C58.0525707,13.8548238 58.4471259,13.8597897 58.7639328,14.0528672 Z M162.239955,34.7874847 C163.107798,34.7874847 163.804344,35.0450458 164.323543,35.5592899 L164.359482,35.5952243 L164.414502,34.9183034 L165.748932,34.9183034 L165.748932,41.9662697 C165.738846,42.9006052 165.430443,43.6277799 164.823723,44.1477935 C164.208934,44.6729914 163.41371,44.935465 162.438051,44.935465 C162.032803,44.9352141 161.539621,44.8444271 160.958507,44.6631037 C160.407853,44.5012204 159.921433,44.1672061 159.568317,43.7085538 L159.542381,43.6739364 L159.508666,43.6282816 L160.292404,42.8044876 L160.38188,42.9040126 C160.684664,43.2388148 160.999716,43.4700156 161.327035,43.597615 C161.649068,43.7275471 161.992065,43.795595 162.338571,43.7982957 C162.936522,43.7982957 163.410849,43.6444405 163.761551,43.3367302 C164.105008,43.0373398 164.280688,42.5990408 164.288345,42.0172551 L164.288345,41.5393844 L164.286122,41.5418302 C163.785943,42.0106076 163.128484,42.2536193 162.317885,42.2708653 L162.272066,42.2714297 L162.225444,42.271806 C161.283439,42.271806 160.530205,41.9206149 159.974327,41.2218073 C159.43298,40.5403293 159.157428,39.6874367 159.147672,38.6631293 L159.147672,38.4144735 C159.156852,37.3438423 159.431354,36.4758777 159.971177,35.8105797 C160.525574,35.1292689 161.28418,34.7874847 162.239955,34.7874847 Z M183.607692,34.7871712 C184.707923,34.7871712 185.578606,35.1391775 186.219742,35.8431903 C186.844534,36.5318593 187.162138,37.3859644 187.172553,38.4055056 L187.173294,38.4575571 L187.173294,38.6083811 L187.172553,38.6606208 C187.162673,39.6787823 186.844884,40.5315496 186.219186,41.2189225 C185.580561,41.9205103 184.714736,42.2714506 183.62171,42.2717432 C182.526748,42.2717432 181.655757,41.9204894 181.017317,41.2189225 C180.391537,40.5323439 180.073707,39.6793258 180.06358,38.6598683 L180.06358,38.404753 C180.074201,37.3865497 180.392031,36.5326954 181.01707,35.8431903 C181.65551,35.1395538 182.521067,34.7871712 183.607692,34.7871712 Z M139.176609,33.1967772 L139.175868,34.9178644 L140.602739,34.9178644 L140.602739,35.9893735 L139.175868,35.9893735 L139.176609,40.3152953 L139.176609,40.3455855 C139.181241,40.6684305 139.258429,40.8677314 139.398417,40.9493206 C139.56339,41.044028 139.750309,41.092184 139.939785,41.0887937 C140.049917,41.0883184 140.159835,41.0788813 140.268483,41.060573 L140.346597,41.0475287 L140.414523,41.0358014 L140.491156,41.0215657 L140.536974,41.012096 L140.630156,40.992028 L140.638554,42.1218599 L140.559143,42.1445619 C140.498751,42.1614316 140.429837,42.1778623 140.351229,42.1939795 L140.281512,42.2075882 L140.207412,42.2211968 L140.16925,42.2277816 L140.16925,42.2277816 C139.964783,42.2594043 139.758122,42.2740857 139.551312,42.2716805 C139.048415,42.2717432 138.616285,42.1282566 138.258502,41.8421613 C137.901275,41.5567558 137.723124,41.0582526 137.716208,40.3495991 L137.716208,35.9893735 L136.317681,35.9893735 L136.317681,34.9178644 L137.716208,34.9178644 L137.716208,33.1967772 L139.176609,33.1967772 Z M145.456643,34.7871712 C146.557038,34.7871712 147.430253,35.1395538 148.068692,35.8431903 C148.694431,36.5318593 149.012282,37.3859644 149.022245,38.4055056 L149.022245,38.6606208 C149.011459,39.6787823 148.693608,40.5315496 148.068692,41.2189225 C147.429512,41.9204894 146.561546,42.2717432 145.471216,42.2717432 C144.375596,42.2717432 143.507589,41.920803 142.867194,41.2189225 L142.866947,41.2189225 C142.241208,40.5323439 141.923357,39.6793258 141.913395,38.6598683 L141.912407,38.6080049 L141.912407,38.4571808 L141.913395,38.404753 C141.923275,37.3865497 142.240817,36.5326954 142.866021,35.8431903 C143.505428,35.1395538 144.368968,34.7875474 145.456643,34.7871712 Z M175.491691,34.7871712 C176.405599,34.7871712 177.146091,35.0391926 177.713168,35.5432354 C178.267523,36.0375369 178.566478,36.6495083 178.610033,37.3791496 L178.612256,37.4206027 L178.615282,37.4946037 L177.221386,37.4946037 L177.212309,37.3924447 C177.17746,36.9957023 176.996023,36.6270637 176.704472,36.3606327 C176.39646,36.0695831 175.99434,35.9240269 175.491691,35.9240269 C174.972492,35.9240269 174.571113,36.044937 174.282861,36.2853148 C173.990931,36.5268309 173.775108,36.8499515 173.662083,37.2147169 C173.546131,37.574499 173.484241,37.949976 173.478498,38.3284944 L173.478498,38.7312353 C173.484043,39.1114862 173.544844,39.4888216 173.658933,39.8510332 C173.769384,40.2148232 173.983881,40.5370301 174.275142,40.7766726 C174.563394,41.0149808 174.967984,41.1346994 175.491629,41.1346994 C175.913512,41.1433224 176.326686,41.0121842 176.668657,40.7611198 C176.993465,40.5204285 177.174023,40.2205991 177.212926,39.8574299 L177.216137,39.8260735 L177.221324,39.7604134 L178.616887,39.7604134 L178.609971,39.871164 C178.565634,40.5089521 178.244531,41.066677 177.646662,41.5443387 C177.038789,42.0288152 176.320527,42.2713043 175.491876,42.271806 C174.319726,42.271806 173.442806,41.9097029 172.869946,41.1855594 C172.312359,40.4817975 172.028471,39.6595504 172.018097,38.719069 L172.018097,38.3394691 C172.027977,37.395643 172.311865,36.5723926 172.869761,35.8697177 C173.4433,35.1478946 174.319541,34.7871712 175.491691,34.7871712 Z M118.88253,40.6243434 C119.166582,40.6243434 119.388884,40.7026716 119.543878,40.8605195 C119.693143,41.0101936 119.775494,41.2154491 119.771738,41.4284456 C119.77508,41.6387295 119.69234,41.840991 119.543261,41.9869649 C119.388884,42.142367 119.167015,42.2193781 118.88253,42.2193781 C118.598045,42.2193781 118.376916,42.1423042 118.222539,41.9869022 C118.073275,41.840991 117.990535,41.6387295 117.993877,41.4284456 C117.990224,41.2154564 118.072585,41.0102331 118.221798,40.8605195 C118.376175,40.7026716 118.598477,40.6243434 118.88253,40.6243434 Z M168.971818,40.6243434 C169.256303,40.6243434 169.478173,40.7026716 169.632549,40.8605195 C169.782262,41.0099366 169.864883,41.2153068 169.861026,41.4284456 C169.864443,41.638744 169.781691,41.8410346 169.632549,41.9869649 C169.477246,42.142367 169.255562,42.2193781 168.971818,42.2193781 C168.688074,42.2193781 168.465772,42.1423042 168.311272,41.9869022 C168.161926,41.8410476 168.07917,41.6387484 168.082609,41.4284456 C168.078731,41.2153026 168.161355,41.009924 168.311087,40.8605195 C168.465463,40.7026716 168.687333,40.6243434 168.971818,40.6243434 Z M130.595564,34.9179899 L132.226459,37.4299469 L133.877484,34.9179899 L135.596373,34.9179899 L133.045456,38.4835202 L135.67424,42.1407991 L133.977087,42.1407991 L132.254246,39.5486326 L130.532393,42.1407991 L128.827089,42.1407991 L131.449081,38.4835202 L128.904957,34.9179899 L130.595564,34.9179899 Z M154.625492,34.7873593 C155.397004,34.7873593 156.013274,34.9898586 156.468932,35.3961742 C156.918538,35.7975354 157.144977,36.4609103 157.152634,37.3831632 L157.152634,42.1409873 L155.685317,42.1407991 L155.685317,37.380153 C155.679142,36.8628987 155.554529,36.4982244 155.316728,36.2834334 C155.071269,36.0619948 154.712622,35.9501781 154.237019,35.9501781 C153.860849,35.9424898 153.490739,36.0471607 153.172624,36.251199 C152.879376,36.4411747 152.635466,36.7000492 152.461505,37.0059463 L152.449155,37.0284602 L152.449155,42.1407364 L150.988568,42.1407364 L150.988568,34.9179271 L152.374992,34.9179271 L152.412413,35.6870356 L152.424763,35.6741795 C152.979901,35.1034104 153.68361,34.8080545 154.535892,34.7881119 L154.58097,34.7873593 L154.625492,34.7873593 Z M108.248401,34.9179899 L109.69954,40.0189151 L111.416206,34.9179899 L112.581439,34.9179899 L114.324905,40.1252758 L115.748626,34.9179899 L117.210756,34.9179899 L114.94803,42.1407991 L113.775387,42.1407991 L111.975234,36.945993 L110.222814,42.1407991 L109.042081,42.1407991 L106.780405,34.9179899 L108.248401,34.9179899 Z M96.898028,34.9179899 L98.3491665,40.0189151 L100.065833,34.9179899 L101.231313,34.9179899 L102.974532,40.1252758 L104.398315,34.9179899 L105.860383,34.9179899 L103.597718,42.1407991 L102.424951,42.1407991 L100.625046,36.945993 L98.8724409,42.1407991 L97.6917081,42.1407991 L95.4299698,34.9179899 L96.898028,34.9179899 Z M85.5476547,34.9179899 L86.9987932,40.0189151 L88.7154592,34.9179899 L89.8808778,34.9179899 L91.6241583,40.1250877 L93.0478796,34.9179899 L94.5100097,34.9179899 L92.2480861,42.1407991 L91.0745782,42.1407991 L89.2744872,36.945993 L87.5220058,42.1407991 L86.3413348,42.1407991 L84.0795965,34.9179899 L85.5476547,34.9179899 Z M192.741096,34.7876102 C193.204197,34.7794177 193.663402,34.8748007 194.086147,35.0669952 C194.432205,35.2284362 194.722604,35.4916171 194.91978,35.8224951 L194.941887,35.8608752 L194.953496,35.8468903 C195.189131,35.5659421 195.474688,35.3325031 195.79528,35.1587439 L195.840481,35.1336588 L195.885559,35.1103924 C196.304475,34.894828 196.795886,34.7871237 197.359792,34.7873593 C198.197748,34.7873593 198.849278,34.9965062 199.309567,35.4164304 C199.763681,35.8303341 199.992343,36.4825462 200,37.3700562 L200,42.1409873 L198.531942,42.1407991 L198.531942,37.3676732 C198.525767,36.8141082 198.386704,36.4441033 198.120683,36.2525787 C197.840768,36.0518981 197.460755,35.9501781 196.977371,35.9501781 C196.470522,35.9501781 196.075813,36.088146 195.789969,36.3635175 C195.516723,36.6202502 195.340977,36.9663194 195.293433,37.3412711 L195.289543,37.3747597 L195.289543,42.1409873 L193.829141,42.1409873 L193.829141,37.3747597 C193.822966,36.8588224 193.682299,36.496782 193.411708,36.2835588 C193.129569,36.0619321 192.751779,35.9503035 192.274571,35.9503035 C191.823421,35.9503035 191.464959,36.0381013 191.196406,36.2122545 C190.942867,36.3737384 190.73782,36.6027819 190.6036,36.8744378 L190.592979,36.8956347 L190.592979,42.1409873 L189.1256,42.1409873 L189.1256,34.918178 L190.519496,34.918178 L190.550371,35.5849394 L190.564142,35.571707 C191.095649,35.0673297 191.789932,34.8062149 192.646988,34.7883627 L192.693734,34.7876102 L192.741096,34.7876102 Z M4.6138443,39.3714141 C5.11266373,39.3714866 5.52116562,39.7742119 5.53623942,40.2807656 L5.53665473,40.3094531 C5.53685303,40.8162828 5.14063921,41.2315599 4.64201168,41.2471406 L4.6138443,41.2475625 C4.11501432,41.2474128 3.70655396,40.8446359 3.69151839,40.3380703 L3.69110309,40.3094531 C3.69093273,39.8009509 4.08969783,39.3849635 4.59003698,39.3716953 L4.6138443,39.3714141 Z M8.30487813,39.3714141 C8.80367069,39.3715246 9.21213106,39.7742392 9.22720404,40.2807656 L9.22761936,40.3094531 C9.2278188,40.8162564 8.83164585,41.2315227 8.3330455,41.2471406 L8.30487813,41.2476328 C7.80607421,41.2474842 7.3976244,40.844749 7.38255221,40.3382109 L7.38213692,40.3095937 C7.38196559,39.8011181 7.78068961,39.3851416 8.2810016,39.3718359 L8.30487813,39.3714141 Z M0.922741264,39.3714141 C1.42156069,39.3714866 1.83006258,39.7742119 1.84513638,40.2807656 L1.8455517,40.3094531 C1.84575,40.8162828 1.44953618,41.2315599 0.950908642,41.2471406 L0.922741264,41.2475625 C0.423911289,41.2474128 0.0154509209,40.8446359 0.000415353061,40.3380703 L5.45627614e-08,40.3094531 C-0.000170301428,39.8009509 0.398594798,39.3849635 0.898933947,39.3716953 L0.922741264,39.3714141 Z M145.456581,35.9240896 C144.762505,35.9239642 144.247258,36.1726828 143.901516,36.6732555 C143.55738,37.1702327 143.381288,37.7484019 143.373055,38.4077632 L143.373055,38.6560428 C143.381288,39.3246855 143.558307,39.9043181 143.90411,40.3949404 C144.252198,40.8890537 144.771335,41.1349502 145.470907,41.1349502 C146.160599,41.1349502 146.675043,40.8893046 147.023934,40.3949404 C147.369737,39.9041927 147.546591,39.3248946 147.554495,38.6570462 L147.554495,38.4089548 C147.558205,37.7886549 147.37269,37.1824071 147.02344,36.6735063 C146.675476,36.1729336 146.156339,35.9240896 145.456581,35.9240896 Z M183.607692,35.9240269 C182.912875,35.9239642 182.397381,36.1726828 182.051948,36.6732555 C181.708286,37.1702327 181.532379,37.7484019 181.523981,38.4077632 L181.523981,38.6559801 C181.531597,39.3246228 181.708512,39.9042554 182.054727,40.3948777 C182.40263,40.888991 182.921767,41.1348875 183.621524,41.1348875 C184.311958,41.1348875 184.826463,40.8892419 185.174366,40.3948777 C185.520169,39.9041299 185.697085,39.3248319 185.705112,38.6569835 L185.705112,38.4088921 C185.709367,37.7885576 185.52392,37.182176 185.174366,36.6734436 C184.826402,36.1728709 184.307264,35.9240269 183.607692,35.9240269 Z M162.558156,35.9501154 C161.873651,35.9501154 161.383598,36.1936288 161.077748,36.6834777 C160.77272,37.172135 160.616286,37.7501788 160.608505,38.4176091 L160.608505,38.6596801 C160.615997,39.3279466 160.771177,39.9018932 161.074043,40.3815199 C161.377608,40.8627771 161.863956,41.1022142 162.543706,41.1022142 C162.994856,41.1022142 163.356591,41.0081451 163.631813,40.821324 C163.895972,40.6442178 164.116502,40.4078062 164.276366,40.1303555 L164.288716,40.1085942 L164.288716,36.9177723 L164.277292,36.8977042 C164.124609,36.64022 163.918005,36.4200128 163.672136,36.2527042 L163.635457,36.2281208 C163.357949,36.0432438 162.998849,35.9505753 162.558156,35.9501154 Z M13.8414635,35.6191875 C14.0862807,35.6191875 14.3210532,35.7180813 14.4941197,35.8940038 C14.6671862,36.0699263 14.7643656,36.3084998 14.7642739,36.5572266 L14.7642739,38.433375 C14.764384,38.6821139 14.6672126,38.9207055 14.4941442,39.0966432 C14.3210757,39.2725809 14.0862927,39.3714844 13.8414635,39.3714844 L11.995912,39.3714844 C11.486132,39.3712902 11.0730179,38.9512957 11.0731708,38.433375 L11.0731708,36.5572969 C11.0730974,36.308588 11.1702732,36.070036 11.3433207,35.8941196 C11.5163683,35.7182031 11.7511124,35.6193324 11.995912,35.6192578 L13.8414635,35.6191875 Z M19.3780488,35.6191875 C19.622854,35.6192434 19.8576088,35.7181082 20.0306603,35.8940287 C20.2037118,36.0699492 20.3008818,36.308512 20.3007901,36.5572266 L20.3007901,38.433375 C20.3009001,38.6821017 20.2037383,38.9206826 20.0306848,39.0966183 C19.8576313,39.272554 19.622866,39.3714284 19.3780488,39.3714844 L17.5324973,39.3714844 C17.0227173,39.3712902 16.6096032,38.9512957 16.6097561,38.433375 L16.6097561,36.5572969 C16.6096827,36.308588 16.7068586,36.070036 16.8799061,35.8941196 C17.0529536,35.7182031 17.2876977,35.6193324 17.5324973,35.6192578 L19.3780488,35.6191875 Z M8.30487813,35.6250234 C8.80367069,35.625134 9.21213106,36.0278486 9.22720404,36.534375 L9.22761936,36.5630625 C9.2278188,37.0698657 8.83164585,37.4851321 8.3330455,37.50075 L8.30487813,37.5011719 C7.80607421,37.5010233 7.3976244,37.098288 7.38255221,36.59175 L7.38213692,36.5631328 C7.38196559,36.0546572 7.78068961,35.6386807 8.2810016,35.625375 L8.30487813,35.6250234 Z M0.922741264,35.6250234 C1.42156069,35.625096 1.83006258,36.0278213 1.84513638,36.534375 L1.8455517,36.5630625 C1.84575,37.0698922 1.44953618,37.4851693 0.950908642,37.50075 L0.922741264,37.5011719 C0.423911289,37.5010222 0.0154509209,37.0982453 0.000415353061,36.5916797 L5.45627614e-08,36.5630625 C-0.000170301428,36.0545602 0.398594798,35.6385729 0.898933947,35.6253047 L0.922741264,35.6250234 Z M4.6138443,35.6250234 C5.11266373,35.625096 5.52116562,36.0278213 5.53623942,36.534375 L5.53665473,36.5630625 C5.53685303,37.0698922 5.14063921,37.4851693 4.64201168,37.50075 L4.6138443,37.5011719 C4.11501432,37.5010222 3.70655396,37.0982453 3.69151839,36.5916797 L3.69110309,36.5630625 C3.69093273,36.0545602 4.08969783,35.6385729 4.59003698,35.6253047 L4.6138443,35.6250234 Z M52.4949264,13.1226328 C52.76694,13.1226328 53.0277824,13.2325663 53.2200667,13.4280398 C53.4123509,13.6235134 53.5202329,13.8885879 53.5202329,14.1649453 L53.5202329,30.8413828 C53.5202329,31.1177402 53.4123509,31.3828148 53.2200667,31.5782883 C53.0277824,31.7737618 52.76694,31.8836953 52.4949264,31.8836953 L36.0903009,31.8836953 C35.8182873,31.8836953 35.5574449,31.7737618 35.3651606,31.5782883 C35.1728764,31.3828148 35.0649944,31.1177402 35.0649944,30.8413828 L35.0649944,14.1649453 C35.0649944,13.8885879 35.1728764,13.6235134 35.3651606,13.4280398 C35.5574449,13.2325663 35.8182873,13.1226328 36.0903009,13.1226328 L52.4949264,13.1226328 Z M30.3486543,13.1159531 C30.9150794,13.1161473 31.3739607,13.5827951 31.3739607,14.1582656 L31.3739607,30.8347734 C31.3739607,31.1111308 31.2660788,31.3762054 31.0737945,31.5716789 C30.8815103,31.7671525 30.6206678,31.8770859 30.3486543,31.8770859 L13.9438903,31.8770859 C13.6718887,31.8770859 13.4110641,31.7671256 13.2187948,31.5716541 C13.0265255,31.3761826 12.918653,31.1111187 12.918653,30.8347734 L12.918653,14.1582656 C12.918653,13.5828225 13.3774922,13.1161861 13.9438903,13.1159531 L30.3486543,13.1159531 Z M17.4300013,0 C17.9963994,0 18.4553077,0.466799116 18.4553077,1.04224219 L18.4553077,8.3385 C18.4553077,8.91395446 17.9964106,9.38057955 17.4300013,9.3808125 L10.0481412,9.3808125 C9.83048367,9.38079383 9.62173856,9.46864489 9.46785089,9.62502958 C9.31396323,9.78141426 9.22754584,9.99351508 9.22761928,10.2146484 L9.22761928,30.0530391 C9.22780524,30.4283553 9.02923728,30.7747519 8.70783604,30.9597872 C8.3864348,31.1448225 7.99190501,31.1398808 7.67509154,30.9468516 L0.995547361,26.872875 C0.37779193,26.4959764 1.4423776e-08,25.8174835 1.4423776e-08,25.0853906 L1.4423776e-08,2.08455469 C1.4423776e-08,1.53186423 0.21578087,1.00174387 0.600332394,0.610814024 C0.984883918,0.219884181 1.50654052,0 2.0505437,0 L17.4300013,0 Z M127.363662,0.23730484 L127.363662,9.2862451 C127.277212,17.480704 125.612622,23.5040702 122.369893,27.3563439 L122.271092,27.4727386 L119.956681,25.3666582 C122.298139,22.7299656 123.728921,18.8092724 124.249025,13.6045786 L121.814385,13.6045786 L121.814385,11.7888579 C121.81459,10.9317558 122.498698,10.2369891 123.34265,10.2367814 L124.454593,10.2367814 C124.460727,9.98639053 124.465337,9.73344933 124.468425,9.47795781 L124.469845,9.2862451 L124.469845,0.23730484 L127.363662,0.23730484 Z M182.227196,15.1680688 L182.227196,23.835465 L195.138439,23.835465 L195.138439,22.0555533 L183.138079,22.0555533 L183.138079,21.1312309 C183.138284,20.2740553 183.822504,19.5792582 184.666529,19.5791544 L195.138439,19.5791544 L195.138439,17.7992427 L183.138079,17.7992427 L183.138079,16.7201453 C183.138284,15.8629697 183.822504,15.1680688 184.666529,15.1680688 L198.176691,15.1680688 L198.176691,27.4727386 L195.138439,27.4727386 L195.138439,26.3118639 L182.227196,26.3118639 L182.227196,27.4727386 L179.189068,27.4727386 L179.189068,15.1680688 L182.227196,15.1680688 Z M169.576479,8.1471317 C169.32818,12.4980758 168.499858,16.2344982 167.067801,19.3800416 C168.444159,21.7222353 170.075054,23.5729497 171.960052,24.9033995 L172.031065,24.9530053 L170.347559,27.4727386 C168.548332,26.1094274 166.952018,24.330519 165.58801,22.1368917 L165.587701,22.1369544 C164.259612,24.1635246 162.59066,25.936876 160.657226,27.3758475 L160.566453,27.4430128 L158.999038,24.834541 C161.087061,23.4232865 162.809471,21.5218038 164.02041,19.291115 C163.159113,17.4776729 162.397749,15.4602891 161.736318,13.2389636 L164.332188,13.2389636 C164.665189,14.2575432 165.025585,15.2176955 165.413379,16.1194204 C166.198105,13.7676943 166.676487,11.1032827 166.848462,8.1471317 L169.576479,8.1471317 Z M99.3521193,0 C99.3974031,0.097831805 99.442481,0.197503182 99.4873531,0.299014132 L99.5546612,0.452911087 C99.7341084,0.866814877 99.9144818,1.31364283 100.094855,1.80248829 L100.128448,1.89467596 L109.902823,1.89467596 L109.902823,4.64776329 L100.616833,4.64776329 L100.616833,6.15763414 L107.602737,6.15763414 L107.602737,10.1837892 L110.190086,10.1837892 L110.190086,12.6705357 L107.602737,12.6705357 L107.602737,16.63749 L100.616833,16.63749 L100.616833,18.0584342 C101.362446,18.7765231 102.149624,19.4487458 102.974161,20.0715118 C104.353545,19.115394 105.538724,18.0458917 106.505491,16.8626913 L106.567983,16.7854919 L108.695537,18.6801052 C107.624862,19.7497059 106.438743,20.6931688 105.159699,21.4925814 C106.847823,22.481375 108.623031,23.3082022 110.462283,23.9623328 L110.592885,24.0088656 L109.069066,26.761953 C105.887965,25.3870398 103.09933,23.5786774 100.70316,21.3368658 L100.616709,21.2553393 L100.616709,24.600748 C100.616709,26.4177857 99.715151,27.3644338 97.9114784,27.3831849 L94.780786,27.3835612 L94.1770506,24.600748 C95.0734924,24.7141707 95.9757729,24.7734548 96.8791323,24.7782877 C97.4171033,24.7782877 97.7037495,24.4629683 97.7127651,23.8885827 L97.7135678,23.8605501 L97.7135678,21.9954745 C95.4501622,23.5392102 92.8537975,24.9397102 89.895451,26.1969116 L89.7495961,26.2586209 L88.5994299,23.5055335 C90.3822307,22.8541368 92.0496815,22.1733905 93.6023998,21.4037175 C92.4295093,20.6272089 91.2566189,19.9903615 90.0308082,19.5204553 L89.9223125,19.4793785 L91.3596188,17.3181109 C92.6699996,17.8193004 93.9141158,18.4836066 95.0634801,19.2958184 L95.1544387,19.3609142 L93.976176,21.2259898 C95.2508314,20.5692624 96.47269,19.8853178 97.5898814,19.147252 L97.7133826,19.0649103 L97.7133826,16.6373645 L90.8994536,16.6373645 L90.8994536,15.1106867 C90.8976459,14.8577637 90.9948895,14.61448 91.1697737,14.4344009 C91.3446578,14.2543219 91.5828433,14.1522127 91.8318873,14.1505553 L97.7136296,14.1505553 L97.7136296,12.6705357 L89.146046,12.6705357 C88.9754909,18.7372364 88.0348238,23.6338437 86.3240447,27.3603575 L86.2713097,27.4726132 L84,25.4007112 C85.4229185,22.2061265 86.170224,17.7639981 86.2406196,12.0453528 L86.2421016,11.871576 L86.2421016,1.89492681 L89.1756245,1.89492681 L89.1756245,4.64801414 L89.1748835,4.64801414 L89.1748835,10.18404 L97.7135678,10.18404 L97.7135678,8.64463151 L91.0722317,8.64463151 L91.0722317,7.11795365 C91.0704405,6.86504148 91.1676914,6.6217739 91.3425737,6.44170845 C91.5174561,6.261643 91.7556322,6.15954239 92.0046654,6.15788499 L97.7136913,6.15788499 L97.7136913,4.64801414 L90.1079964,4.64801414 L90.1079964,3.44700331 C90.1079309,3.03529673 90.2689426,2.64043348 90.5555968,2.34931296 C90.842251,2.05819245 91.2310564,1.89467212 91.6364467,1.89473867 L96.9946059,1.89473867 C96.7835595,1.45030315 96.5420135,1.02148309 96.2717536,0.611448781 L96.2182776,0.533057912 L99.3521193,0 Z M139.630723,0.000250850782 L139.630723,27.413726 L136.737647,27.413726 L136.737647,13.6043905 L134.096636,13.6043905 L134.096636,11.7886698 C134.096636,11.3769958 134.257653,10.9821809 134.544302,10.6911011 C134.830951,10.4000212 135.219729,10.2365267 135.625087,10.2365933 L136.737647,10.2365933 L136.737647,0.000250850782 L139.630723,0.000250850782 Z M150.291466,13.7192174 L153.135697,14.0747984 C153.048506,14.2971776 152.968971,14.5195568 152.892709,14.7381733 L152.817744,14.9554101 L152.707642,15.2748685 L152.670901,15.3791597 L158.505342,15.3791597 L158.505342,17.8688537 C158.019572,19.5930271 157.110868,21.1637856 155.864332,22.4340244 C156.93342,22.9098256 157.976202,23.4123425 158.993542,23.9660329 L159.173175,24.0642409 L157.547838,26.494985 C157.375842,26.3890006 157.198577,26.2822635 157.016042,26.174774 L156.857837,26.0823982 L156.777561,26.0360535 L156.777561,26.0360535 L156.615466,25.9431133 L156.450345,25.8499849 C156.422742,25.8344949 156.395325,25.8189422 156.367043,25.8034521 L156.198217,25.7093831 L156.026242,25.615314 L155.851241,25.5208687 C155.822341,25.5051905 155.792516,25.4895124 155.763431,25.4735833 L155.584355,25.3785736 L155.402499,25.2833757 L155.218421,25.1876135 L155.031872,25.091663 L154.937209,25.0435624 L154.937209,25.0435624 L154.746214,24.9470476 L154.552009,24.8501564 L154.35558,24.752889 C154.32279,24.7365837 154.290001,24.7205293 154.256285,24.704224 L154.05541,24.6063922 C154.021633,24.5901496 153.988102,24.5738443 153.954387,24.5573509 L153.749622,24.4591428 L153.541831,24.3605584 C151.651337,25.589351 149.307841,26.5583248 146.484049,27.324235 L146.372404,27.3543371 L144.979867,24.7755283 C147.069815,24.3012949 148.869535,23.6788087 150.407742,22.9673959 C149.65278,22.6397848 148.86194,22.3121736 148.049673,21.9848134 L147.672995,21.8336131 L147.293908,21.6824128 L146.91266,21.5311497 C146.849118,21.5060647 146.7857,21.4809796 146.721603,21.4558945 C147.39098,20.3156523 147.980821,19.2030663 148.488967,18.1441625 L148.550038,18.0171693 L145.676969,18.0171693 L145.676969,15.3790343 L149.711011,15.3790343 C149.738428,15.2998909 149.765104,15.2222526 149.791966,15.1449278 L149.873044,14.9162773 L150.070955,14.3630886 C150.135052,14.1821625 150.196926,14.0037449 150.256206,13.825829 L150.291466,13.7192174 Z M117.613061,16.4661589 L120.274511,17.5342815 C119.283476,20.9333096 118.180858,24.1327859 116.994753,27.1055558 L116.918367,27.2950109 L114.08346,25.9897715 C115.427488,22.8818873 116.605728,19.7027459 117.613061,16.4661589 Z M133.265103,0.920120668 L133.265103,26.4051804 L130.603653,26.4051804 L130.603653,13.6044532 L128.148512,13.6044532 L128.148512,11.7887325 C128.148512,11.3770809 128.309461,10.9822752 128.596076,10.6911936 C128.882692,10.4001119 129.271441,10.2366061 129.676777,10.236656 L130.603653,10.236656 L130.603653,0.920120668 L133.265103,0.920120668 Z M155.835494,18.0168557 L151.539445,18.0168557 C151.162087,18.7873439 150.756386,19.5284198 150.34982,20.2398326 L150.349573,20.2402716 C151.278117,20.5366518 152.207278,20.8924836 153.135821,21.2777277 C154.30408,20.3463815 155.192918,19.2722384 155.801964,18.083143 L155.835494,18.0168557 Z M178.891739,0.000501701564 L181.502059,0.596272309 L181.385042,0.902059412 L181.306434,1.10474684 C181.194727,1.39128115 181.079438,1.67173232 180.95569,1.93556463 L180.953282,1.93556463 L180.89536,2.07127491 L188.361005,2.07127491 L188.361005,4.6522786 L184.445462,4.6522786 L184.418107,4.98804237 L184.389022,5.31621791 C184.353824,5.70566375 184.315601,6.08131279 184.267497,6.45608386 L184.251442,6.5807567 L189.138321,6.5807567 L189.138321,9.27514495 L183.668393,9.27514495 L183.585091,9.53044833 L183.799922,9.64383289 L184.012158,9.75671574 C184.15365,9.83197097 184.293,9.90722621 184.43021,9.98248144 L184.635716,10.0953643 L184.838258,10.2082471 L184.939096,10.2646886 L185.138674,10.3770697 C185.237228,10.4330931 185.335247,10.4891791 185.43273,10.5453279 L185.626195,10.6573955 C186.689608,11.2698275 187.716834,11.9449121 188.702609,12.6791901 L188.777512,12.7356315 L186.718871,14.7863366 L186.250432,14.4091825 C185.386912,13.6252738 184.379389,12.862562 183.207548,12.084611 L183.021185,11.9615687 L182.927077,11.9001102 L182.736824,11.7765035 L182.640616,11.7147942 C182.001621,12.6790019 181.141312,13.5865173 180.085995,14.4091825 L179.113979,15.0897406 C178.494992,15.4586167 177.852415,15.8272419 177.186003,16.1732279 L177.031626,16.2527476 L175.087718,13.8410682 C177.891194,12.5775955 179.742971,11.0637737 180.614889,9.32757276 L180.641565,9.27476867 L175.670644,9.27476867 L175.670644,6.58038042 L176.892564,6.58038042 L175.531643,4.85045072 C176.791725,3.73121724 177.889898,2.14283009 178.852774,0.0852892659 L178.891739,0.000501701564 Z M161.561563,6.27126956e-05 L164.522812,0.533747751 L164.476993,0.871957318 L164.431915,1.20621598 L164.386097,1.53683732 L164.339475,1.86363317 C164.331694,1.91777513 164.324058,1.97183348 164.316565,2.0258082 L164.26982,2.34714805 C164.182752,2.93369989 164.093337,3.50294303 163.998118,4.05820124 L163.971256,4.20946426 L163.361531,7.20343105 C163.317935,7.35895854 163.27897,7.5104097 163.240747,7.66085745 L163.164361,7.96118855 C163.125212,8.11169902 163.086309,8.26302476 163.042898,8.41861495 L163.042095,8.4203082 L163.045862,8.43598637 C162.97489,8.70280799 162.900028,8.96883524 162.821275,9.23406813 C162.555498,10.1832812 162.239935,11.1173824 161.875936,12.0323713 L161.839194,12.1256878 C161.758918,12.3285634 161.676481,12.5336966 161.590833,12.7465435 C161.175128,13.6822169 160.731944,14.5635811 160.287896,15.3648612 L160.226825,15.4736678 L158.339912,13.0724614 C159.920933,9.84434628 160.989527,5.54123106 161.545694,0.163115721 L161.561563,6.27126956e-05 Z M153.920053,0.0230782719 L153.920053,5.38840022 L158.853924,5.38840022 L158.853924,8.08598682 L153.920053,8.08598682 L153.920053,8.14525031 C155.368886,8.7429023 156.844478,9.42243617 158.346828,10.1838519 L158.534859,10.2796142 L156.967444,12.7101701 L156.758171,12.5430408 L156.553345,12.3799878 L156.352285,12.2210111 L156.155856,12.0661735 L155.899962,11.8663081 L155.65086,11.6736547 L155.409354,11.4884014 L155.23287,11.3543844 L155.059969,11.224381 L154.947583,11.1401578 L154.781721,11.0169274 L154.620552,10.8977732 L154.514341,10.8209502 L154.359964,10.7088826 L154.208675,10.6010168 L154.061833,10.49729 L153.919806,10.3977649 L153.919806,13.5104468 L151.132941,13.5104468 L151.132941,8.85653771 C150.157776,10.8487946 148.672181,12.5804803 146.619715,14.1088514 L146.54722,14.1625962 L145.038283,11.672714 C146.899816,10.5906064 148.28062,9.42195537 149.15402,8.13803835 L149.189033,8.08598682 L145.7352,8.08598682 L145.7352,5.38840022 L151.133188,5.38840022 L151.133188,0.0230782719 L153.920053,0.0230782719 Z M104.7569,12.6711001 L100.616771,12.6711001 L100.616771,14.1511197 L104.7569,14.1511197 L104.7569,12.6711001 Z M115.703734,7.35764157 C117.461567,8.86880849 118.969001,10.380059 120.226037,11.8913932 L120.303966,11.9858385 L118.192096,14.1516214 C117.164876,12.6889105 115.659891,11.1112472 113.732161,9.44666417 L113.649601,9.37504627 L115.703734,7.35764157 Z M192.900475,2.11341784 L192.900475,4.7159947 L192.88516,4.7159947 L192.88516,10.3734951 L197.164475,10.3734951 L197.164475,4.7159947 L193.802156,4.7159947 L193.802156,3.66561976 C193.802075,3.25395798 193.963061,2.85913291 194.249684,2.56804407 C194.536308,2.27695523 194.925075,2.11341784 195.330421,2.11354326 L199.999382,2.11354326 L199.999382,12.9477258 L190.050253,12.9476004 L190.050253,2.11341784 L192.900475,2.11341784 Z M104.7569,8.64494507 L100.616771,8.64494507 L100.616771,10.2002199 L104.7569,10.2002199 L104.7569,8.64494507 Z M43.2675149,0 C43.8338748,0.000232951939 44.2928358,0.466837941 44.2926829,1.04224219 L44.2926829,8.3385 C44.2928358,8.91397053 43.8338016,9.38061837 43.2673765,9.3808125 L36.0903009,9.3808125 C35.5238375,9.38057955 35.0648033,8.91386874 35.0649944,8.33835937 L35.0649944,1.04217187 C35.0649944,0.765833118 35.1729051,0.500783869 35.3651893,0.305336707 C35.5574735,0.109889544 35.8183057,0 36.0903009,0 L43.2675149,0 Z M30.3487927,0 C30.6207943,0 30.8816262,0.109923828 31.0739085,0.305382156 C31.2661907,0.500840483 31.3740991,0.765896962 31.3740991,1.04224219 L31.3740991,8.3385 C31.374252,8.91397053 30.9152178,9.38061837 30.3487927,9.3808125 L23.1716479,9.3808125 C22.8996096,9.38070063 22.638757,9.27080081 22.4464748,9.07528973 C22.2541925,8.87977866 22.1462313,8.61467159 22.1463414,8.33828906 L22.1463414,1.04217187 C22.1462268,0.466740186 22.6052609,0.000155310885 23.1716479,0 L30.3487927,0 Z M48.9064578,5.62830469 C49.1512751,5.62830469 49.3860476,5.72719849 49.5591141,5.903121 C49.7321806,6.07904352 49.82936,6.31761702 49.8292683,6.56634375 L49.8292683,8.44242187 C49.82936,8.69116154 49.732185,8.9297495 49.5591225,9.10569434 C49.38606,9.28163919 49.1512878,9.38052698 48.9064578,9.38060156 L47.0609755,9.38060156 C46.8161576,9.38050834 46.5814032,9.28161232 46.4083557,9.10566949 C46.2353081,8.92972667 46.1381426,8.69114936 46.1382343,8.44242187 L46.1382343,6.56634375 C46.1381609,6.31763491 46.2353368,6.0790829 46.4083843,5.90316645 C46.5814319,5.72725 46.8161759,5.62837927 47.0609755,5.62830469 L48.9064578,5.62830469 Z M54.4430432,5.62830469 C54.6878604,5.62830469 54.9226329,5.72719849 55.0956994,5.903121 C55.2687659,6.07904352 55.3659453,6.31761702 55.3658536,6.56634375 L55.3658536,8.44242187 C55.3659453,8.69116154 55.2687703,8.9297495 55.0957078,9.10569434 C54.9226453,9.28163919 54.6878731,9.38052698 54.4430432,9.38060156 L52.5975609,9.38060156 C52.3527429,9.38050834 52.1179885,9.28161232 51.944941,9.10566949 C51.7718935,8.92972667 51.6747279,8.69114936 51.6748197,8.44242187 L51.6748197,6.56634375 C51.6747463,6.31763491 51.7719221,6.0790829 51.9449697,5.90316645 C52.1180172,5.72725 52.3527613,5.62837927 52.5975609,5.62830469 L54.4430432,5.62830469 Z M65.5162139,7.49861719 C66.0150186,7.49872661 66.4234994,7.90143108 66.438609,8.40796875 L66.4390243,8.43665625 C66.4392238,8.94345949 66.0430508,9.35872587 65.5444505,9.37434375 L65.5162139,9.37476563 C65.0175142,9.3746217 64.6091066,8.97205256 64.593888,8.465625 L64.5934035,8.43700781 C64.5932697,7.92852066 64.992014,7.51255498 65.4923374,7.49925 L65.5162139,7.49861719 Z M61.82518,7.49861719 C62.3239579,7.4987646 62.7323972,7.90145835 62.747506,8.40796875 L62.7479905,8.43665625 C62.7481899,8.94345949 62.352017,9.35872587 61.8534166,9.37434375 L61.82518,9.37476563 C61.3263339,9.37481281 60.9176982,8.97220014 60.9024389,8.465625 L60.9020236,8.43700781 C60.9018532,7.92850556 61.3006183,7.51251823 61.8009575,7.49925 L61.82518,7.49861719 Z M58.1342154,7.49861719 C58.6329933,7.4987646 59.0414325,7.90145835 59.0565413,8.40796875 L59.0569567,8.43665625 C59.0571561,8.94345949 58.6609832,9.35872587 58.1623828,9.37434375 L58.1342154,9.37476563 C57.6354742,9.37469653 57.2270039,8.97209588 57.2118203,8.465625 L57.211405,8.43700781 C57.2112337,7.92853217 57.6099577,7.51255566 58.1102697,7.49925 L58.1342154,7.49861719 Z M171.384166,4.20927607 L171.384166,7.20324292 L164.302733,7.20311749 L164.660331,5.44716202 C164.80703,4.72618698 165.432314,4.20909684 166.157227,4.20927607 L171.384166,4.20927607 Z M116.340258,0.326294155 C118.2155,1.78260837 119.811011,3.23911072 121.100919,4.69555036 L121.171932,4.77638703 L119.088962,6.91250686 C117.976402,5.5083069 116.412939,4.01687357 114.371835,2.41067601 L114.286126,2.34369886 L116.340258,0.326294155 Z M181.724855,4.6512752 L179.468119,4.6512752 L179.374134,4.79338217 C179.360488,4.81514347 179.345976,4.83690478 179.331465,4.85885422 C178.905728,5.44708384 178.436177,6.00127189 177.926948,6.5165389 L177.865197,6.5797533 L181.474951,6.5797533 C181.578939,5.99495741 181.65835,5.40978525 181.714049,4.77826841 L181.724855,4.6512752 Z M65.5162139,3.75229688 C66.0150447,3.75240745 66.423536,4.15515347 66.438609,4.66171875 L66.4390243,4.69040625 C66.4392238,5.19720949 66.0430508,5.61247587 65.5444505,5.62809375 L65.5162139,5.62851563 C65.0174221,5.62836592 64.6089927,5.22562054 64.5939572,4.71909375 L64.5934727,4.69040625 C64.5933014,4.18189179 64.9920563,3.76588381 65.4924066,3.75257813 L65.5162139,3.75229688 Z M61.82518,3.75229688 C62.3239571,3.75248343 62.7323654,4.155208 62.7474368,4.66171875 L62.7479212,4.69040625 C62.7480459,5.19715493 62.3518941,5.61233691 61.8533474,5.62795313 L61.8251108,5.628375 C61.3261873,5.628375 60.917551,5.22561145 60.9024389,4.71895313 L60.9024389,4.69026563 C60.902305,4.18181729 61.3010184,3.76588308 61.8013035,3.75257813 L61.82518,3.75229688 Z M58.1342154,3.75229688 C58.6329925,3.75248343 59.0414008,4.155208 59.0564721,4.66171875 L59.0568875,4.69040625 C59.0570869,5.19720949 58.660914,5.61247587 58.1623136,5.62809375 L58.1341462,5.62851563 C57.6353276,5.62840391 57.2268567,5.22564781 57.2118203,4.71909375 L57.211405,4.69040625 C57.2111961,4.1819033 57.6099308,3.76588449 58.1102697,3.75257813 L58.1342154,3.75229688 Z M156.677093,0.378847393 L158.796064,1.41649165 C158.210114,2.67011066 157.496613,3.85802276 156.667213,4.96082506 L156.590025,5.06248234 L154.470868,3.96576272 C155.378602,2.7786114 156.119609,1.61980621 156.640413,0.461753577 L156.677093,0.378847393 Z M148.521262,0.408761349 C149.132376,1.50805536 149.659623,2.65330338 150.098372,3.83444234 L150.146599,3.966139 L147.998544,4.94445705 C147.490235,3.68130813 146.897659,2.45485188 146.224944,1.27363213 L146.169924,1.17956309 L148.521262,0.408761349 Z M54.442974,0 C54.6878032,0 54.9225935,0.0988669178 55.0956749,0.274791457 C55.2687564,0.450715997 55.3659453,0.689300151 55.3658536,0.938039062 L55.3658536,2.8141875 C55.3659453,3.0629207 55.2687681,3.30150142 55.0957036,3.47743511 C54.9226391,3.65336879 54.6878668,3.75224094 54.4430432,3.75229687 L52.5975609,3.75229687 C52.0877809,3.75210275 51.6746668,3.33210823 51.6748197,2.8141875 L51.6748197,0.938039062 C51.6747463,0.689330224 51.7719221,0.450778217 51.9449697,0.274861766 C52.1180172,0.0989453146 52.3527613,7.45809531e-05 52.5975609,0 L54.442974,0 Z M48.9063886,0 C49.1512178,0 49.3860082,0.0988669178 49.5590896,0.274791457 C49.7321711,0.450715997 49.82936,0.689300151 49.8292683,0.938039062 L49.8292683,2.8141875 C49.82936,3.0629207 49.7321828,3.30150142 49.5591183,3.47743511 C49.3860538,3.65336879 49.1512814,3.75224094 48.9064578,3.75229687 L47.0609755,3.75229687 C46.8161639,3.7522223 46.5814094,3.65334191 46.4083599,3.47741025 C46.2353103,3.30147859 46.1381426,3.06290852 46.1382343,2.8141875 L46.1382343,0.938039062 C46.1381609,0.689330224 46.2353368,0.450778217 46.4083843,0.274861766 C46.5814319,0.0989453146 46.8161759,7.45809531e-05 47.0609755,0 L48.9063886,0 Z M65.5161447,0 C66.0149494,0.000109420413 66.4234302,0.402813891 66.4385398,0.909351562 L66.4389551,0.938039062 C66.4391545,1.44484231 66.0429816,1.86010869 65.5443813,1.87572656 L65.5161447,1.87614844 C65.0173529,1.87599873 64.6089235,1.47325335 64.593888,0.966726562 L64.5934033,0.938039062 C64.5930839,0.429400961 64.9919327,0.0132335664 65.4924066,0 L65.5161447,0 Z M61.8251108,0 C62.3238887,0.000147410087 62.732328,0.402841159 62.7474368,0.909351562 L62.7479213,0.938039062 C62.7481207,1.44484231 62.3519478,1.86010869 61.8533474,1.87572656 L61.8251108,1.87614844 C61.3261873,1.87614844 60.917551,1.47338489 60.9024387,0.966726562 L60.9024387,0.938039062 C60.9021173,0.429454186 61.300884,0.0133084471 61.8013035,0 L61.8251108,0 Z M58.1341462,0 C58.6329241,0.000147410087 59.0413633,0.402841159 59.0564721,0.909351562 L59.0568875,0.938039062 C59.0570869,1.44484231 58.660914,1.86010869 58.1623136,1.87572656 L58.1341462,1.87614844 C57.6353276,1.87603673 57.2268567,1.47328062 57.2118203,0.966726562 L57.2114049,0.938039062 C57.2110835,0.429454186 57.6098502,0.0133084471 58.1102697,0 L58.1341462,0 Z" id="形状结合"></path>
            </g>
        </g>
    </g>
</svg>