<?xml version="1.0" encoding="UTF-8"?>
<svg width="2050px" height="454px" viewBox="0 0 2050 454" version="1.1" xmlns="http://www.w3.org/2000/svg" xmlns:xlink="http://www.w3.org/1999/xlink">
    <title>logo@2x</title>
    <g id="使用" stroke="none" stroke-width="1" fill="none" fill-rule="evenodd">
        <g id="白色" transform="translate(-975.000000, -623.000000)" fill="#FFFFFF" fill-rule="nonzero">
            <g id="logo" transform="translate(975.000000, 623.000000)">
                <path d="M1880.33588,350.167969 C1890.91541,350.167969 1899.29398,353.818375 1905.43049,361.112689 C1911.42771,368.241444 1914.48443,377.087655 1914.60199,387.630989 L1914.60552,388.265625 L1914.60552,389.840719 L1914.60187,390.484012 C1914.48224,401.022089 1911.42529,409.853396 1905.42998,416.957246 C1899.29369,424.228156 1890.96097,427.867188 1880.4726,427.867188 C1869.93882,427.867188 1861.58329,424.228312 1855.44686,416.957246 C1849.44927,409.85069 1846.39242,401.015627 1846.27485,390.472526 L1846.27133,389.837891 L1846.27133,388.262797 L1846.27498,387.619491 C1846.39461,377.081176 1849.45142,368.238728 1855.44636,361.112689 C1861.58247,353.818844 1869.89258,350.167969 1880.33588,350.167969 Z M1791.43912,350.167969 C1800.22204,350.167969 1807.3425,352.77725 1812.77207,357.997982 C1818.07439,363.096348 1820.9451,369.411252 1821.37559,376.918228 L1821.40167,377.443904 L1821.42351,377.964844 L1808.40969,377.964844 L1808.33493,377.041724 C1807.94411,372.801056 1806.28573,369.191105 1803.35231,366.193454 C1800.32812,363.103056 1796.36767,361.558594 1791.43912,361.558594 C1786.35943,361.558594 1782.41121,362.841486 1779.57126,365.395228 C1776.70155,367.97574 1774.67729,371.245679 1773.49543,375.214951 C1772.37619,378.973893 1771.78163,382.831552 1771.71168,386.789174 L1771.70469,387.582031 L1771.70467,390.44884 L1771.71156,391.254705 C1771.78022,395.253182 1772.3637,399.131564 1773.46198,402.891043 C1774.62108,406.858719 1776.63313,410.11578 1779.5013,412.672673 C1782.34109,415.204259 1786.3129,416.476563 1791.43912,416.476563 C1795.8386,416.476563 1799.68182,415.158575 1802.98748,412.51849 C1806.16606,409.979904 1807.94315,406.809319 1808.33653,402.981114 L1808.37229,402.582746 L1808.4078,402.121094 L1821.43183,402.121094 L1821.37503,403.103936 C1820.93344,409.664065 1817.84599,415.41263 1812.13654,420.32908 C1806.30274,425.352619 1799.39634,427.867188 1791.43912,427.867188 C1780.1683,427.867188 1771.75622,424.119471 1766.25565,416.622938 C1760.90969,409.33712 1758.17827,400.82554 1758.06204,391.103083 L1758.05816,390.453125 L1758.05816,387.579069 L1758.06203,386.930003 C1758.17809,377.1639 1760.90967,368.641336 1766.25609,361.377442 C1771.75676,353.903984 1780.16862,350.167969 1791.43912,350.167969 Z M1472.90299,350.167969 C1481.86053,350.167969 1488.8848,352.46302 1493.95211,357.065423 C1498.90453,361.563484 1501.44741,366.991209 1501.56301,373.319859 L1501.56714,373.773438 L1501.56714,374.273438 L1487.92836,374.273438 L1487.91575,373.46259 C1487.82814,370.664219 1486.55245,368.006447 1484.06504,365.476521 C1481.50116,362.868829 1477.79065,361.558594 1472.90299,361.558594 C1467.7825,361.558594 1464.14711,362.660223 1461.97721,364.830116 C1459.78804,367.019275 1458.70568,369.378826 1458.70568,371.927734 C1458.70568,374.504731 1459.72533,376.544037 1461.78694,378.090234 C1462.70867,378.781534 1464.0893,379.475517 1465.92577,380.169375 L1466.59286,380.414257 L1467.29778,380.659101 C1467.41842,380.699903 1467.54063,380.740703 1467.66441,380.7815 L1468.42601,381.026236 L1469.22536,381.270865 C1469.36173,381.311626 1469.49968,381.352382 1469.63919,381.393131 L1470.49511,381.63755 L1471.38871,381.881794 L1472.31996,382.125835 L1473.28882,382.369647 L1474.29527,382.613202 L1475.33929,382.856472 C1484.51811,384.967595 1491.29151,387.704545 1495.66477,391.082827 C1500.09746,394.50701 1502.31909,399.302891 1502.31909,405.423828 C1502.31909,412.050108 1499.63838,417.470055 1494.29984,421.642957 C1488.98684,425.795904 1481.96297,427.867188 1473.24478,427.867188 C1463.32606,427.867188 1455.70476,425.319041 1450.40729,420.207466 C1445.24149,415.222932 1442.58649,409.681533 1442.4658,403.603059 L1442.46148,403.167969 L1442.46148,402.667969 L1456.1466,402.667969 L1456.20033,403.543007 C1456.54433,408.399144 1458.46135,411.716227 1461.9594,413.560645 C1465.64874,415.505931 1469.40856,416.476563 1473.24478,416.476563 C1478.29694,416.476563 1482.13783,415.49969 1484.77531,413.565548 C1487.38501,411.651776 1488.67257,409.269798 1488.67257,406.380859 C1488.67257,403.775243 1487.71926,401.446165 1485.79793,399.372008 C1484.59752,398.076109 1482.33998,396.891652 1479.0326,395.833127 L1478.28034,395.599978 C1478.15209,395.561468 1478.0224,395.523131 1477.89126,395.48497 L1477.0872,395.258106 C1476.67653,395.145729 1476.25293,395.034941 1475.81638,394.92576 L1474.92606,394.709548 L1474.00125,394.497658 C1473.84425,394.462706 1473.68581,394.427934 1473.52593,394.393346 L1472.54945,394.188006 C1472.38383,394.15415 1472.21678,394.120477 1472.0483,394.086988 C1463.74104,392.34293 1457.17674,389.848272 1452.35473,386.595157 C1447.4523,383.287782 1444.99079,378.494336 1444.99079,372.269531 C1444.99079,366.285054 1447.55315,361.090146 1452.65048,356.714366 C1457.73775,352.347229 1464.4958,350.167969 1472.90299,350.167969 Z M1717.99163,411.144531 C1720.67634,411.144531 1722.76017,411.936628 1724.20661,413.530158 C1725.63616,415.105081 1726.35299,417.036873 1726.35299,419.300781 C1726.35299,421.520844 1725.63487,423.41959 1724.204,424.971714 C1722.75742,426.540877 1720.67486,427.320313 1717.99163,427.320313 C1715.3084,427.320313 1713.22584,426.540877 1711.77926,424.971714 C1710.3484,423.41959 1709.63028,421.520844 1709.63028,419.300781 C1709.63028,417.036873 1710.34711,415.105081 1711.77666,413.530158 C1713.2231,411.936628 1715.30693,411.144531 1717.99163,411.144531 Z M1231.84755,411.144531 C1234.53226,411.144531 1236.61609,411.936628 1238.06253,413.530158 C1239.49208,415.105081 1240.20891,417.036873 1240.20891,419.300781 C1240.20891,421.520844 1239.49079,423.41959 1238.05992,424.971714 C1236.61334,426.540877 1234.53078,427.320313 1231.84755,427.320313 C1229.16432,427.320313 1227.08176,426.540877 1225.63519,424.971714 C1224.20432,423.41959 1223.4862,421.520844 1223.4862,419.300781 C1223.4862,417.036873 1224.20303,415.105081 1225.63258,413.530158 C1227.07902,411.936628 1229.16285,411.144531 1231.84755,411.144531 Z M984.48184,351.535156 L998.179372,351.535156 L1012.39513,405.46 L1029.21349,351.535156 L1040.13525,351.535156 L1057.21726,406.586 L1071.16496,351.535156 L1084.79799,351.535156 L1063.04287,426.5 L1052.04882,426.5 L1034.44019,371.668 L1017.30235,426.5 L1006.23695,426.5 L984.48184,351.535156 Z M1104.68729,351.535156 L1118.38482,351.535156 L1132.6005,405.46 L1149.41894,351.535156 L1160.3407,351.535156 L1177.42364,406.587 L1191.37041,351.535156 L1205.00344,351.535156 L1183.24832,426.5 L1172.25427,426.5 L1154.64557,371.668 L1137.5078,426.5 L1126.4424,426.5 L1104.68729,351.535156 Z M1288.91023,320.5 L1288.90998,383.064 L1294.81421,376.027902 L1317.93103,351.535156 L1334.74852,351.535156 L1305.39803,382.901 L1337.94269,426.5 L1321.79254,426.5 L1296.359,392.453 L1288.90998,400.156 L1288.91023,426.5 L1275.19534,426.5 L1275.19534,320.5 L1288.91023,320.5 Z M1586.97756,351.535156 L1586.97756,361.157512 L1546.32777,415.109 L1588.95998,415.109375 L1588.95998,426.5 L1529.30746,426.5 L1529.30746,416.536178 L1569.54785,362.994 L1529.85433,362.994141 L1529.85433,351.535156 L1586.97756,351.535156 Z M1415.26804,351.535156 L1415.26804,361.157512 L1374.61824,415.109 L1417.25047,415.109375 L1417.25047,426.5 L1357.59794,426.5 L1357.59794,416.536178 L1397.83832,362.994 L1358.14482,362.994141 L1358.14482,351.535156 L1415.26804,351.535156 Z M864.276391,351.535156 L877.973923,351.535156 L892.188755,405.462 L909.008041,351.535156 L919.929801,351.535156 L937.011893,406.586 L950.959511,351.535156 L964.592537,351.535156 L942.837423,426.5 L931.843369,426.5 L914.234823,371.668 L897.096901,426.5 L886.031505,426.5 L864.276391,351.535156 Z M2023.78359,350.167969 C2031.83615,350.167969 2038.08075,352.330895 2042.48886,356.66902 C2046.81448,360.925966 2049.00767,367.650536 2049.09538,376.820197 L2049.09812,377.396484 L2049.09812,426.5 L2035.38324,426.5 L2035.38325,377.262736 L2035.38046,376.792926 C2035.31095,370.991032 2033.93742,367.085826 2031.30423,365.042477 C2028.5514,362.906287 2024.81918,361.832031 2020.09217,361.832031 C2015.11731,361.832031 2011.23797,363.297799 2008.42115,366.224646 C2005.68373,369.068985 2004.0623,372.495859 2003.55416,376.473719 L2003.50228,376.917969 L2003.50228,426.5 L1989.85575,426.5 L1989.85577,377.331598 L1989.85248,376.85669 C1989.77679,371.451929 1988.39174,367.634601 1985.72545,365.370377 C1982.95126,363.014526 1979.238,361.832031 1974.56469,361.832031 C1970.14876,361.832031 1966.62497,362.762842 1963.98225,364.612741 C1961.45056,366.384917 1959.52355,368.697258 1958.19628,371.557269 L1958.04305,371.897 L1958.04315,426.5 L1944.32827,426.5 L1944.32827,351.535156 L1957.33882,351.535156 L1957.64804,358.844 L1957.76108,358.721626 C1962.8824,353.250826 1969.64233,350.403194 1978.01049,350.181947 L1978.54681,350.171392 L1979.07642,350.167969 C1983.89243,350.167969 1988.19704,351.130992 1991.98401,353.059321 C1995.39979,354.798643 1998.09354,357.466823 2000.05958,361.052305 L2000.29201,361.486965 L2000.34618,361.594 L2000.52742,361.349714 C2002.69917,358.468451 2005.38249,356.059379 2008.5745,354.124249 L2009.11121,353.806116 L2009.62981,353.512021 C2013.64962,351.281383 2018.37004,350.167969 2023.78359,350.167969 Z M1630.96207,320.5 L1630.96204,359.505 L1631.04774,359.410248 C1636.38789,353.499662 1643.13065,350.41991 1651.24629,350.182801 L1651.76618,350.171527 L1652.26877,350.167969 C1659.68312,350.167969 1665.58449,352.263125 1669.94468,356.460081 C1674.23396,360.588787 1676.40361,367.428253 1676.48705,376.958179 L1676.48955,377.533203 L1676.48955,426.5 L1662.77467,426.5 L1662.77468,377.399632 L1662.77161,376.910811 C1662.70294,371.50139 1661.47896,367.665293 1659.13203,365.3818 C1656.705,363.020374 1653.17297,361.832031 1648.509,361.832031 C1644.55446,361.832031 1641.07793,362.894917 1638.06488,365.021765 C1635.17761,367.059837 1632.87747,369.683332 1631.16118,372.897559 L1630.96204,373.28 L1630.96207,426.5 L1617.31554,426.5 L1617.31554,320.5 L1630.96207,320.5 Z M1880.33588,361.558594 C1873.52995,361.558594 1868.46072,364.198117 1865.06846,369.497116 C1861.73932,374.697529 1860.02351,380.734257 1859.92258,387.617811 L1859.91784,388.265625 L1859.91784,389.83436 L1859.92236,390.475663 C1860.02123,397.449483 1861.74789,403.499514 1865.10027,408.636914 C1868.51451,413.8691 1873.61896,416.476563 1880.4726,416.476563 C1887.23449,416.476563 1892.29359,413.8697 1895.70821,408.636914 C1899.05764,403.504039 1900.7843,397.459934 1900.88587,390.493679 L1900.89065,389.837891 L1900.89065,388.269308 L1900.88586,387.616761 C1900.78409,380.734228 1899.05729,374.69838 1895.70664,369.498362 C1892.29188,364.198841 1887.18812,361.558594 1880.33588,361.558594 Z" id="www.kzszh.com"></path>
                <path d="M2000.17517,277.169408 L2000.17517,265.457472 L1867.83453,265.457472 L1867.83453,277.169408 L1836.69362,277.169408 L1836.69362,153.028961 L1867.83453,153.028961 L1867.83453,240.473358 L2000.17517,240.473358 L2000.17517,222.516027 L1877.17111,222.516027 L1877.17111,213.19064 C1877.1732,204.542691 1884.18649,197.532961 1892.83777,197.531913 L2000.17517,197.531913 L2000.17517,179.574581 L1877.17111,179.574581 L1877.17111,168.687688 C1877.1732,160.039739 1884.18649,153.028961 1892.83777,153.028961 L2031.31735,153.028961 L2031.31735,277.169408 L2000.17517,277.169408 Z M1697.27918,223.337273 C1683.66622,243.783115 1666.55941,261.67426 1646.74165,276.191884 L1645.81122,276.869507 L1629.74517,250.552925 C1651.14747,236.314935 1668.80223,217.131087 1681.21439,194.625915 C1672.38607,176.3303 1664.58206,155.977139 1657.80237,133.566433 L1684.41013,133.566433 C1687.82339,143.842769 1691.51747,153.529639 1695.49237,162.627041 C1703.53584,138.900738 1708.43927,112.019786 1710.20202,82.1955064 L1738.16428,82.1955064 C1735.61921,126.091698 1727.12888,163.788048 1712.45024,195.523086 C1726.55796,219.153219 1743.27468,237.82487 1762.59597,251.247631 L1763.32386,251.748097 L1746.06787,277.169408 C1727.62574,263.415112 1711.26347,245.467903 1697.28234,223.33664 L1697.27918,223.337273 Z M1229.55978,255.921396 C1253.5598,229.320098 1268.22535,189.76466 1273.55644,137.255082 L1248.6013,137.255082 L1248.6013,118.936478 C1248.6034,110.28927 1255.61553,103.279846 1264.26607,103.27775 L1275.66352,103.27775 C1275.72639,100.751584 1275.77365,98.1996888 1275.80529,95.6220632 L1275.81985,93.687895 L1275.81985,2.39414216 L1305.48157,2.39414216 L1305.48157,93.687895 C1304.59545,176.36088 1287.53335,237.129953 1254.29528,275.995114 L1253.28257,277.169408 L1229.55978,255.921396 Z M861.002658,256.264953 C875.587618,224.035143 883.247523,179.219003 883.969081,121.524226 L883.984271,119.771011 L883.984271,19.117706 L914.052973,19.117706 L914.052973,46.8932982 L914.045378,46.8932982 L914.045378,102.745648 L1001.56716,102.745648 L1001.56716,87.2147268 L933.493257,87.2147268 L933.493257,71.8122435 C933.474897,69.2606407 934.471722,66.8063411 936.264272,64.9896808 C938.056822,63.1730204 940.498134,62.1429388 943.050732,62.1262175 L1001.56843,62.1262175 L1001.56843,46.8932982 L923.609815,46.8932982 L923.609815,34.7764334 C923.609143,30.6227715 925.259518,26.63904 928.197733,23.7019574 C931.135948,20.7648749 935.121215,19.1151365 939.276479,19.1158079 L994.19778,19.1158079 C992.034547,14.6319473 989.558693,10.3056294 986.788522,6.16883881 L986.240391,5.37796204 L1018.36237,0 C1018.82653,0.98701421 1019.28858,1.99258766 1019.74852,3.01672035 L1020.43843,4.56936963 C1022.27777,8.74519898 1024.1266,13.2531966 1025.97543,18.1851041 L1026.31976,19.1151752 L1126.50741,19.1151752 L1126.50741,46.8907674 L1031.32572,46.8907674 L1031.32572,62.1236867 L1102.93146,62.1236867 L1102.93146,102.743118 L1129.45187,102.743118 L1129.45187,127.831627 L1102.93146,127.831627 L1102.93146,167.853788 L1031.32572,167.853788 L1031.32572,182.189536 C1038.96828,189.434256 1047.03688,196.216235 1055.48841,202.499252 C1069.62714,192.853086 1081.77526,182.062996 1091.68466,170.125819 L1092.3252,169.346963 L1114.1327,188.461506 C1103.15825,199.252588 1091.00049,208.771081 1077.89025,216.836266 C1095.19357,226.812094 1113.3895,235.153862 1132.2419,241.753313 L1133.58058,242.222778 L1117.96138,269.99837 C1085.35499,256.127024 1056.77139,237.882657 1032.21058,215.265268 L1031.32446,214.442757 L1031.32446,248.194214 C1031.32446,266.526104 1022.08345,276.076732 1003.59575,276.26591 L1003.03939,276.269706 L971.506056,276.269706 L965.317749,248.194214 C974.506306,249.338522 983.75471,249.936633 993.014172,249.985391 C998.528392,249.985391 1001.46652,246.804169 1001.55893,241.009256 L1001.56716,240.726439 L1001.56716,221.909899 C978.367184,237.484477 951.754363,251.613965 921.431217,264.29773 L919.9362,264.920308 L908.14696,237.144716 C926.420725,230.572846 943.512149,223.704873 959.42756,215.939728 C947.405396,208.105619 935.383232,201.680536 922.818633,196.939705 L921.706548,196.525285 L936.438984,174.720496 C949.870428,179.776942 962.622659,186.479053 974.40368,194.673368 L975.336008,195.330112 L963.258778,214.146652 C976.324036,207.521003 988.848126,200.620761 1000.29937,193.174498 L1001.56526,192.343761 L1001.56526,167.852522 L931.722276,167.852522 L931.722276,152.450039 C931.703747,149.898327 932.700497,147.443865 934.493065,145.627067 C936.285634,143.81027 938.727042,142.780101 941.279751,142.76338 L1001.5678,142.76338 L1001.5678,127.831627 L913.749792,127.831627 C912.001597,189.037897 902.35973,238.439223 884.82419,276.035607 L884.283654,277.168142 L861.002658,256.264953 Z M1031.32509,142.769075 L1073.76154,142.769075 L1073.76154,127.837321 L1031.32509,127.837321 L1031.32509,142.769075 Z M1031.32509,102.908885 L1073.76154,102.908885 L1073.76154,87.2178903 L1031.32509,87.2178903 L1031.32509,102.908885 Z M1401.56521,276.574036 L1401.56521,137.253184 L1374.49477,137.253184 L1374.49477,118.93458 C1374.49477,114.781247 1376.1452,110.798003 1379.08336,107.861331 C1382.02152,104.924659 1386.0065,103.275181 1390.16143,103.275852 L1401.56521,103.275852 L1401.56521,0.00253080567 L1431.21933,0.00253080567 L1431.21933,276.574036 L1401.56521,276.574036 Z M1486.04822,249.957552 C1507.47026,245.173064 1525.91745,238.89287 1541.68412,231.715505 C1533.94573,228.410273 1525.8396,225.105041 1517.51383,221.802339 L1513.65287,220.276896 L1509.76722,218.751453 L1505.85941,217.225377 C1505.20811,216.972297 1504.55808,216.719216 1503.90108,216.466136 C1510.76221,204.962359 1516.8081,193.737603 1522.01661,183.054439 L1522.64259,181.773219 L1493.19354,181.773219 L1493.19354,155.157368 L1534.5426,155.157368 C1534.82362,154.358899 1535.09706,153.575615 1535.37239,152.795494 L1536.20344,150.488665 L1538.23203,144.907605 C1538.88903,143.082262 1539.52324,141.282226 1540.13087,139.487252 L1540.49228,138.41166 L1569.64574,141.999077 C1568.75203,144.242636 1567.93679,146.486195 1567.1551,148.691793 L1566.38671,150.88347 L1565.25817,154.106451 L1564.88157,155.158634 L1624.68477,155.158634 L1624.68477,180.27688 C1619.70562,197.671874 1610.39137,213.519081 1597.61433,226.33438 C1608.57252,231.134685 1619.26107,236.204522 1629.68884,241.790643 L1631.53008,242.781453 L1614.87032,267.30496 C1613.10736,266.235695 1611.29038,265.158837 1609.4194,264.074386 L1607.79779,263.142417 C1607.52246,262.985507 1607.24966,262.831128 1606.97496,262.674851 L1605.31348,261.737187 L1603.62099,260.797626 C1603.33806,260.641349 1603.05703,260.484439 1602.76714,260.328161 L1601.03667,259.379109 L1599.27392,258.430057 L1597.48015,257.477209 C1597.18393,257.319033 1596.87822,257.160858 1596.5801,257.000152 L1594.74456,256.041609 L1592.88054,255.081169 L1590.99373,254.115033 L1589.0816,253.147 C1588.76069,252.986294 1588.43283,252.824323 1588.11129,252.661718 L1586.15359,251.687991 L1584.16298,250.710467 L1582.14958,249.729147 C1581.81349,249.564645 1581.47739,249.402673 1581.1318,249.238171 L1579.07283,248.251157 C1578.72661,248.087287 1578.38292,247.922785 1578.03733,247.756384 L1575.93849,246.765574 L1573.80863,245.770967 C1554.431,258.168119 1530.4101,267.943988 1501.46614,275.671171 L1500.32177,275.974867 L1486.04822,249.957552 Z M1541.08788,204.201851 C1550.60548,207.191998 1560.12941,210.781946 1569.64701,214.668631 C1581.6217,205.272382 1590.73232,194.435472 1596.97506,182.438821 L1597.31875,181.770055 L1553.28411,181.770055 C1549.41618,189.543425 1545.25773,197.020058 1541.09042,204.197423 L1541.08788,204.201851 Z M1169.35908,262.207917 C1183.1354,230.852819 1195.2124,198.778814 1205.5376,166.125247 L1232.81755,176.901418 C1222.65941,211.193835 1211.35753,243.472996 1199.19992,273.464941 L1198.41697,275.376332 L1169.35908,262.207917 Z M1338.69158,266.398931 L1338.69158,137.253816 L1313.52631,137.253816 L1313.52631,118.935212 C1313.52631,114.782105 1315.17603,110.798954 1318.11385,107.862264 C1321.05168,104.925574 1325.03636,103.275981 1329.19107,103.276485 L1338.69158,103.276485 L1338.69158,9.28299519 L1365.97153,9.28299519 L1365.97153,266.398931 L1338.69158,266.398931 Z M1794.65465,139.640999 C1823.39037,126.893963 1842.37114,111.621184 1851.30833,94.1048452 L1851.58176,93.5721106 L1800.62966,93.5721106 L1800.62966,66.3887269 L1813.15438,66.3887269 L1799.2049,48.9356584 C1812.12078,37.6438362 1823.37708,21.6187747 1833.2466,0.860473927 L1833.64599,0.00506161133 L1860.40185,6.01572507 L1859.20242,9.10077718 L1858.39668,11.1456682 C1857.25168,14.0364809 1856.06997,16.8659217 1854.80155,19.5276965 L1854.77687,19.5276965 L1854.18316,20.8968624 L1930.70626,20.8968624 L1930.70626,46.9363219 L1890.57183,46.9363219 L1890.29143,50.3238053 L1889.99331,53.6347318 C1889.63253,57.5638076 1889.24074,61.3536891 1888.74768,65.1347127 L1888.58311,66.3925232 L1938.67377,66.3925232 L1938.67377,93.5759068 L1882.60684,93.5759068 L1881.753,96.1516343 L1883.95501,97.2955584 L1886.13045,98.434421 C1887.58074,99.1936627 1889.00908,99.9529044 1890.41549,100.712146 L1892.52193,101.851009 L1894.59799,102.989871 L1895.63159,103.559302 L1897.67727,104.693103 C1898.68745,105.258317 1899.69215,105.824163 1900.69136,106.390641 L1902.67437,107.521279 C1913.57439,113.700037 1924.10349,120.510891 1934.20771,127.91894 L1934.97547,128.488371 L1913.87434,149.177707 L1909.07282,145.372641 C1900.22171,137.463873 1889.89457,129.768959 1877.88317,121.920298 L1875.97294,120.678937 L1875.00833,120.05889 L1873.05823,118.811836 L1872.0721,118.189257 C1865.52238,127.917042 1856.70419,137.072864 1845.88715,145.372641 L1835.92396,152.238717 C1829.57931,155.960267 1822.99288,159.679285 1816.16214,163.169899 L1814.57977,163.972165 L1794.65465,139.640999 Z M1838.59056,48.3599001 C1838.45067,48.5794475 1838.30193,48.7989949 1838.15319,49.0204404 C1833.78937,54.9550236 1828.97647,60.5461653 1823.75685,65.7446369 L1823.1239,66.3823999 L1860.12399,66.3823999 C1861.18987,60.4824592 1862.00384,54.5787223 1862.57475,48.207419 L1862.68552,46.9261987 L1839.5539,46.9261987 L1838.59056,48.3599001 Z M1622.98911,131.88661 C1639.19462,99.3185158 1650.14774,55.9048645 1655.84847,1.64565638 L1656.01114,0.000632701416 L1686.36403,5.38492176 L1685.89439,8.7970805 L1685.43234,12.169379 L1684.96269,15.5049809 L1684.48482,18.801988 C1684.40507,19.3482202 1684.32679,19.8936088 1684.25,20.4381539 L1683.77086,23.6801159 C1682.8784,29.5977723 1681.9619,35.340803 1680.9859,40.9427414 L1680.71057,42.4688172 L1674.46086,72.6746155 C1674.014,74.243715 1673.61461,75.771689 1673.22282,77.2895397 L1672.43987,80.3195467 C1672.03858,81.8380301 1671.63983,83.3647387 1671.19486,84.9344709 L1671.18664,84.9515538 L1671.22525,85.1097292 C1670.49778,87.8016628 1669.73044,90.4855822 1668.92322,93.1614874 C1666.199,102.737992 1662.96447,112.162036 1659.23346,121.393257 L1658.85686,122.334717 C1658.03403,124.381506 1657.18905,126.451072 1656.31115,128.598461 C1652.05017,138.038366 1647.50752,146.930352 1642.95601,155.014378 L1642.33002,156.112115 L1622.98911,131.88661 Z M1486.64699,117.764715 C1505.72776,106.847452 1519.88105,95.0570608 1528.83343,82.1037647 L1529.19231,81.5786226 L1493.79041,81.5786226 L1493.79041,54.3629711 L1549.11996,54.3629711 L1549.11996,0.232834121 L1577.68542,0.232834121 L1577.68542,54.3629711 L1628.25775,54.3629711 L1628.25775,81.5786226 L1577.68542,81.5786226 L1577.68542,82.1765254 C1592.536,88.2061699 1607.66086,95.0619115 1623.06,102.74375 L1624.98732,103.709885 L1608.92127,128.231494 L1606.77622,126.545345 L1604.67674,124.900321 L1602.61587,123.296423 L1600.60247,121.734283 L1597.97954,119.717864 L1595.42624,117.774205 L1592.95079,115.905205 L1591.14184,114.553122 L1589.36959,113.241532 L1588.21763,112.391814 L1586.51754,111.148556 L1584.86555,109.946423 L1583.77688,109.171364 L1582.19452,108.040727 L1580.6438,106.95248 L1579.13866,105.905992 L1577.68289,104.901895 L1577.68289,136.305397 L1549.11743,136.305397 L1549.11743,89.3526249 C1539.12196,109.452283 1523.89456,126.923068 1502.85672,142.342634 L1502.11364,142.884859 L1486.64699,117.764715 Z M1165.75825,95.3038144 L1164.912,94.5838002 L1185.96693,74.2304283 C1203.98477,89.4764234 1219.43603,104.723262 1232.32068,119.970945 L1233.11946,120.923793 L1211.47273,142.774136 C1200.94368,128.017008 1185.51754,112.100139 1165.75825,95.3063452 L1165.75825,95.3038144 Z M1948.02111,130.626902 L1948.02111,21.3220377 L1977.23597,21.3220377 L1977.23597,47.5791465 L1977.079,47.5791465 L1977.079,104.657039 L2020.94211,104.657039 L2020.94211,47.5791465 L1986.47824,47.5791465 L1986.47824,36.9820305 C1986.4774,32.8288206 1988.12752,28.8454743 1991.06541,25.9087113 C1994.00331,22.9719483 1997.98819,21.3220377 2002.143,21.3233031 L2050,21.3233031 L2050,130.628167 L1948.02111,130.626902 Z M1684.10822,72.671452 L1687.7736,54.9558123 C1689.27727,47.6819753 1695.68645,42.4651104 1703.11683,42.4669186 L1756.69312,42.4669186 L1756.69312,72.6727174 L1684.10822,72.671452 Z M1172.31493,24.3191444 L1171.4364,23.6453173 L1192.49133,3.29194547 C1211.71262,17.9845378 1228.06666,32.6790282 1241.28825,47.3728859 L1242.01614,48.188438 L1220.66563,69.7395137 C1209.26185,55.5726962 1193.23631,40.5257911 1172.31493,24.3210425 L1172.31493,24.3191444 Z M1583.33129,40.0101395 C1592.63559,28.0331017 1600.23093,16.3420449 1605.56919,4.65858053 L1605.94516,3.82214926 L1627.66468,14.2908269 C1621.65868,26.9384498 1614.34526,38.923163 1605.84389,50.0492129 L1605.05271,51.0748219 L1583.33129,40.0101395 Z M1498.8103,12.8495331 L1498.24634,11.9004809 L1522.34764,4.12394783 C1528.61157,15.214603 1534.01587,26.768883 1538.51306,38.6852627 L1539.00739,40.0139357 L1516.98976,49.8840778 C1511.77957,37.1403087 1505.70565,24.7667278 1498.8103,12.8495331 Z" id="联合_2"></path>
                <path d="M311.076085,359.358025 C313.864233,359.358025 316.537876,360.467132 318.508796,362.439242 C320.479716,364.411353 321.585509,367.085661 321.585509,369.8738 L321.585509,443.484225 C321.587076,449.290083 316.881961,453.998041 311.076085,454 L237.510124,454 C231.703856,453.99765 226.998742,449.289056 227.0007,443.482806 L227.0007,369.872381 C227.0007,364.067192 231.704917,359.360301 237.510124,359.358025 L311.076085,359.358025 Z M443.493397,359.358025 C449.298881,359.360375 454.00336,364.068334 454.001402,369.8738 L454.001402,443.484225 C454.002968,449.290083 449.297854,453.998041 443.491978,454 L369.926726,454 C364.120458,453.99765 359.415344,449.289056 359.417303,443.482806 L359.417303,369.872381 C359.417303,367.084553 360.523661,364.410683 362.49456,362.438992 C364.465459,360.4673 367.138889,359.359299 369.926726,359.358025 L443.493397,359.358025 Z M141.875439,416.142784 C144.384823,416.142784 146.791249,417.140513 148.565186,418.915376 C150.339123,420.690238 151.335215,423.09718 151.334275,425.606556 L151.334275,444.534809 C151.335027,447.044063 150.338851,449.450822 148.564935,451.225531 C146.791018,453.000241 144.3847,453.997872 141.875439,453.997872 L122.958477,453.997872 C117.733494,453.995913 113.499176,449.759068 113.500351,444.5341 L113.500351,425.605847 C113.499176,420.380994 117.733608,416.144351 122.958477,416.142784 L141.875439,416.142784 Z M198.625614,416.142784 C201.134875,416.143349 203.541118,417.140784 205.314902,418.915626 C207.088685,420.690469 208.08468,423.097303 208.08374,425.606556 L208.08374,444.534809 C208.084492,447.04394 207.088414,449.450592 205.314651,451.225281 C203.540888,452.999969 201.134752,453.997308 198.625614,453.997872 L179.708652,453.997872 C174.483669,453.995913 170.249351,449.759068 170.250526,444.5341 L170.250526,425.605847 C170.249351,420.380994 174.483783,416.144351 179.708652,416.142784 L198.625614,416.142784 Z M9.45812716,435.069619 C14.5710421,435.070351 18.7581994,439.133401 18.9127063,444.243966 L18.9169633,444.533391 C18.9189959,449.646739 14.8577917,453.836424 9.74684367,453.993616 L9.45812716,453.997872 C4.34537124,453.996373 0.158747732,449.933221 0.00425738202,444.822816 L7.73662238e-07,444.5341 C-0.00137071525,439.40403 4.08577147,435.207398 9.21410141,435.073166 L9.45812716,435.069619 Z M47.2920501,435.069619 C52.404965,435.070351 56.5921223,439.133401 56.7466292,444.243966 L56.7508863,444.533391 C56.7529188,449.646739 52.6917146,453.836424 47.5807666,453.993616 L47.2920501,453.997872 C42.1792942,453.996373 37.9926706,449.933221 37.8381803,444.822816 L37.8339237,444.5341 C37.8325522,439.40403 41.9196944,435.207398 47.0480243,435.073166 L47.2920501,435.069619 Z M85.1252636,435.069619 C90.2379032,435.070734 94.4246349,439.133677 94.5791334,444.243966 L94.5833904,444.533391 C94.5854347,449.646472 90.5246495,453.836049 85.4139801,453.993616 L85.1252636,453.997872 C80.0125077,453.996373 75.8258842,449.933221 75.6713938,444.822816 L75.667137,444.5341 C75.6653809,439.404146 79.7523148,435.207405 84.8805285,435.073166 L85.1252636,435.069619 Z M602.332171,141.777816 L670.797001,182.880422 C677.129181,186.682836 681.002102,193.528044 681.002102,200.914153 L681.002102,432.967031 C681.005236,444.578241 671.59521,453.993637 659.983964,453.997162 L502.344038,453.997162 C496.538162,453.997162 491.834614,449.287246 491.834614,443.481387 L491.834614,369.870963 C491.834614,364.065266 496.538324,359.357538 502.344038,359.355188 L578.010465,359.355188 C582.65511,359.354012 586.419496,355.58805 586.418713,350.943419 L586.418713,150.795391 C586.416355,147.008674 588.451606,143.513569 591.746147,141.646673 C595.040687,139.779777 599.08489,139.829878 602.332171,141.777816 Z M9.45812716,397.213822 C14.5710421,397.214554 18.7581994,401.277605 18.9127063,406.388169 L18.9169633,406.677594 C18.9189959,411.790942 14.8577917,415.980627 9.74684367,416.137819 L9.45812716,416.142075 C4.34510413,416.140564 0.158372428,412.076994 0.00425738202,406.966309 L5.59270028e-07,406.677594 C-0.00174559503,401.547371 4.08560929,397.350521 9.21410141,397.216659 L9.45812716,397.213822 Z M47.2920501,397.213822 C52.404965,397.214554 56.5921223,401.277605 56.7466292,406.388169 L56.7508863,406.677594 C56.7529188,411.790942 52.6917146,415.980627 47.5807666,416.137819 L47.2920501,416.142075 C42.179027,416.140564 37.9922953,412.076994 37.8381803,406.966309 L37.8339235,406.677594 C37.8321773,401.547371 41.9195322,397.350521 47.0480243,397.216659 L47.2920501,397.213822 Z M85.1252636,397.213822 C90.2379032,397.214937 94.4246349,401.27788 94.5791334,406.388169 L94.5833904,406.677594 C94.5854347,411.790675 90.5246495,415.980252 85.4139801,416.137819 L85.1252636,416.142784 C80.0125077,416.141285 75.8258842,412.078134 75.6713938,406.967728 L75.667137,406.679012 C75.6653809,401.549058 79.7523148,397.352317 84.8805285,397.218078 L85.1252636,397.213822 Z M198.625614,359.358025 C201.134875,359.358589 203.541118,360.356025 205.314902,362.130867 C207.088685,363.905709 208.08468,366.312543 208.083741,368.821797 L208.083741,387.75005 C208.084869,390.259426 207.088957,392.666443 205.315153,394.441438 C203.541349,396.216434 201.134998,397.213967 198.625614,397.214531 L179.708652,397.214531 C174.483391,397.212573 170.248959,392.975295 170.250526,387.75005 L170.250526,368.822506 C170.249773,366.31331 171.245829,363.906586 173.019572,362.131784 C174.793314,360.356983 177.199449,359.359487 179.708652,359.358734 L198.625614,359.358025 Z M141.875439,359.358025 C144.384823,359.358025 146.791249,360.355754 148.565186,362.130616 C150.339123,363.905479 151.335215,366.312421 151.334275,368.821797 L151.334275,387.75005 C151.335403,390.259549 150.339394,392.666673 148.565437,394.441689 C146.791479,396.216705 144.384946,397.214531 141.875439,397.214531 L122.958477,397.214531 C117.733216,397.212573 113.498784,392.975295 113.500351,387.75005 L113.500351,368.822506 C113.499598,366.31331 114.495654,363.906586 116.269397,362.131784 C118.043139,360.356983 120.449274,359.359487 122.958477,359.358734 L141.875439,359.358025 Z M9.45812716,359.416903 C14.5710421,359.417635 18.7581994,363.480686 18.9127063,368.59125 L18.9169633,368.880675 C18.9189959,373.994024 14.8577917,378.183708 9.74684367,378.3409 L9.45812716,378.345156 C4.34510413,378.343646 0.158372428,374.280075 0.00425738202,369.169391 L5.59270028e-07,368.880675 C-0.00174559503,363.750452 4.08560929,359.553602 9.21410141,359.419741 L9.45812716,359.416903 Z M47.2920501,359.416903 C52.404965,359.417635 56.5921223,363.480686 56.7466292,368.59125 L56.7508863,368.880675 C56.7529188,373.994024 52.6917146,378.183708 47.5807666,378.3409 L47.2920501,378.345156 C42.179027,378.343646 37.9922953,374.280075 37.8381803,369.169391 L37.8339235,368.880675 C37.8321773,363.750452 41.9195322,359.553602 47.0480243,359.419741 L47.2920501,359.416903 Z M85.1252636,359.416903 C90.2379032,359.418019 94.4246349,363.480961 94.5791334,368.59125 L94.5833904,368.880675 C94.5854347,373.993757 90.5246495,378.183333 85.4139801,378.3409 L85.1252636,378.345156 C80.0125077,378.343657 75.8258842,374.280506 75.6713938,369.1701 L75.667137,368.881384 C75.6653809,363.75143 79.7523148,359.554689 84.8805285,359.42045 L85.1252636,359.416903 Z M538.074657,132.392784 C540.862805,132.392784 543.536448,133.501891 545.507368,135.474002 C547.478287,137.446113 548.584081,140.12042 548.584081,142.908559 L548.584081,311.155284 C548.584081,313.943424 547.478287,316.617731 545.507368,318.589842 C543.536448,320.561953 540.862805,321.671059 538.074657,321.671059 L369.926726,321.671059 C367.138578,321.671059 364.464935,320.561953 362.494016,318.589842 C360.523096,316.617731 359.417303,313.943424 359.417303,311.155284 L359.417303,142.908559 C359.417303,140.12042 360.523096,137.446113 362.494016,135.474002 C364.464935,133.501891 367.138578,132.392784 369.926726,132.392784 L538.074657,132.392784 Z" id="形状结合"></path>
                <path d="M311.074667,132.325394 C316.880543,132.327352 321.58409,137.035311 321.58409,142.841169 L321.58409,311.088603 C321.58409,313.876742 320.478297,316.55105 318.507377,318.523161 C316.536458,320.495271 313.862814,321.604378 311.074667,321.604378 L142.925317,321.604378 C140.137292,321.604378 137.463831,320.495 135.493065,318.52291 C133.522299,316.55082 132.416603,313.876619 132.416603,311.088603 L132.416603,142.841169 C132.416603,137.035587 137.119718,132.327744 142.925317,132.325394 L311.074667,132.325394 Z M178.658065,0 C184.463663,0 189.167488,4.70948442 189.167488,10.5150656 L189.167488,84.1262 C189.167488,89.9318961 184.463778,94.6396248 178.658065,94.641975 L102.993766,94.641975 C100.762769,94.6417867 98.6231247,95.5281063 97.0457713,97.105854 C95.4684178,98.6836017 94.5826369,100.823463 94.5833897,103.054453 L94.5833897,303.201772 C94.5852958,306.988296 92.5499678,310.483053 89.255595,312.349854 C85.9612222,314.216654 81.9172793,314.166798 78.6699312,312.219347 L10.204392,271.11745 C3.87237924,267.314962 1.47845187e-07,260.469722 1.47845187e-07,253.083719 L1.47845187e-07,21.0308406 C1.47845187e-07,15.4548081 2.21176075,10.1064826 6.15342604,6.16243482 C10.0950913,2.21838707 15.442088,0 21.0181378,0 L178.658065,0 Z M443.493397,0 C449.298604,0.00235022623 454.002969,4.70987612 454.001401,10.5150656 L454.001401,84.1262 C454.002968,89.9320582 449.297854,94.6400164 443.491978,94.641975 L369.926726,94.641975 C364.120458,94.6396248 359.415344,89.9310313 359.417303,84.1247813 L359.417303,10.5143563 C359.417303,7.72640523 360.52339,5.05235282 362.494309,3.08050811 C364.465229,1.1086634 367.138767,0 369.926726,0 L443.493397,0 Z M311.076085,0 C313.86411,0 316.537646,1.10900929 318.508545,3.08096664 C320.479444,5.05292398 321.585509,7.72704935 321.585509,10.5150656 L321.585509,84.1262 C321.587076,89.9320582 316.881961,94.6400164 311.076085,94.641975 L237.510124,94.641975 C234.721723,94.6408464 232.047976,93.5320793 230.077077,91.5595898 C228.106177,89.5871002 226.999572,86.9124645 227.0007,84.1240719 L227.0007,10.5143563 C226.999526,4.70888988 231.70464,0.00156691426 237.510124,0 L311.076085,0 Z M501.292741,56.7833406 C503.802125,56.7833406 506.208551,57.7810692 507.982488,59.5559319 C509.756425,61.3307946 510.752517,63.7377362 510.751577,66.2471125 L510.751577,85.1746563 C510.752517,87.6841631 509.75647,90.0912505 507.982574,91.8663385 C506.208677,93.6414265 503.802255,94.6390945 501.292741,94.6398469 L482.376489,94.6398469 C479.867097,94.6389064 477.460857,93.6411554 475.687114,91.8660878 C473.913371,90.0910201 472.917422,87.6840402 472.918362,85.1746563 L472.918362,66.2471125 C472.91761,63.7379167 473.913665,61.331192 475.687408,59.5563904 C477.461151,57.7815889 479.867285,56.7840931 482.376489,56.7833406 L501.292741,56.7833406 Z M558.042916,56.7833406 C560.5523,56.7833406 562.958726,57.7810692 564.732663,59.5559319 C566.5066,61.3307946 567.502692,63.7377362 567.501752,66.2471125 L567.501752,85.1746563 C567.502692,87.6841631 566.506645,90.0912505 564.732749,91.8663385 C562.958852,93.6414265 560.55243,94.6390945 558.042916,94.6398469 L539.126664,94.6398469 C536.617272,94.6389064 534.211032,93.6411554 532.437289,91.8660878 C530.663546,90.0910201 529.667597,87.6840402 529.668537,85.1746563 L529.668537,66.2471125 C529.667785,63.7379167 530.66384,61.331192 532.437583,59.5563904 C534.211326,57.7815889 536.61746,56.7840931 539.126664,56.7833406 L558.042916,56.7833406 Z M671.543266,75.6527156 C676.65603,75.6538196 680.842971,79.7166602 680.997845,84.8270625 L681.002102,85.1164875 C681.004146,90.2295691 676.943361,94.4191455 671.832692,94.5767125 L671.543266,94.5809687 C666.431578,94.5795168 662.245387,90.5180414 662.089396,85.40875 L662.08443,85.1200344 C662.083058,79.989964 666.170201,75.7933324 671.298531,75.6591 L671.543266,75.6527156 Z M633.710052,75.6527156 C638.822541,75.6542028 643.009056,79.7169353 643.163922,84.8270625 L643.168888,85.1164875 C643.170933,90.2295691 639.110147,94.4191455 633.999478,94.5767125 L633.710052,94.5809687 C628.596863,94.5814448 624.408335,90.5195303 624.251926,85.40875 L624.247669,85.1200344 C624.245923,79.9898117 628.333278,75.7929617 633.46177,75.6591 L633.710052,75.6527156 Z M595.877548,75.6527156 C600.990037,75.6542028 605.176552,79.7169353 605.331418,84.8270625 L605.335675,85.1164875 C605.337719,90.2295691 601.276934,94.4191455 596.166264,94.5767125 L595.877548,94.5809687 C590.765434,94.5802717 586.578601,90.5184784 586.422969,85.40875 L586.418712,85.1200344 C586.416956,79.9900801 590.50389,75.7933393 595.632103,75.6591 L595.877548,75.6527156 Z M671.543266,37.8565063 C676.656297,37.8576218 680.843346,41.9208816 680.997845,47.0315625 L681.002102,47.3209875 C681.004146,52.4340691 676.943361,56.6236455 671.832692,56.7812125 L671.543266,56.7854688 C666.430634,56.7839584 662.24422,52.720705 662.090105,47.6104125 L662.085139,47.3209875 C662.083383,42.1906416 666.170634,37.9935833 671.29924,37.8593438 L671.543266,37.8565063 Z M633.710052,37.8565063 C638.822533,37.8583884 643.008731,41.9214318 643.163212,47.0315625 L643.168178,47.3209875 C643.169456,52.4335186 639.108887,56.6222435 633.998769,56.7797938 L633.709343,56.78405 C628.595361,56.78405 624.406825,52.7206133 624.251926,47.6089938 L624.251926,47.3195688 C624.250554,42.18989 628.337379,37.993576 633.465317,37.8593438 L633.710052,37.8565063 Z M595.877548,37.8565063 C600.990029,37.8583884 605.176226,41.9214318 605.330708,47.0315625 L605.334965,47.3209875 C605.33701,52.4340691 601.276224,56.6236455 596.165555,56.7812125 L595.876839,56.7854688 C590.763932,56.7843417 586.577092,52.7209801 586.422969,47.6104125 L586.418712,47.3209875 C586.416571,42.1907577 590.503614,37.9935902 595.632103,37.8593438 L595.877548,37.8565063 Z M558.042206,0 C560.551713,0 562.958321,0.997457349 564.732412,2.77234048 C566.506502,4.54722361 567.502692,6.95427263 567.501752,9.46377188 L567.501752,28.392025 C567.502692,30.9014666 566.506622,33.308481 564.732706,35.0834564 C562.958789,36.8584318 560.552365,37.855942 558.042916,37.8565063 L539.126664,37.8565063 C533.901403,37.8545477 529.66697,33.6172697 529.668537,28.392025 L529.668537,9.46377188 C529.667785,6.95457603 530.66384,4.54785134 532.437583,2.77304981 C534.211326,0.998248285 536.61746,0.000752438949 539.126664,0 L558.042206,0 Z M501.292031,0 C503.801538,0 506.208146,0.997457349 507.982237,2.77234048 C509.756327,4.54722361 510.752517,6.95427263 510.751577,9.46377188 L510.751577,28.392025 C510.752517,30.9014666 509.756447,33.308481 507.982531,35.0834564 C506.208614,36.8584318 503.80219,37.855942 501.292741,37.8565063 L482.376489,37.8565063 C479.867162,37.8557538 477.46092,36.8581606 475.687157,35.0832056 C473.913394,33.3082507 472.917422,30.9013437 472.918362,28.392025 L472.918362,9.46377188 C472.91761,6.95457603 473.913665,4.54785134 475.687408,2.77304981 C477.461151,0.998248285 479.867285,0.000752438949 482.376489,0 L501.292031,0 Z M671.542556,0 C676.65532,0.00110393039 680.842261,4.06394459 680.997135,9.17434688 L681.001392,9.46377188 C681.003437,14.5768535 676.942652,18.7664299 671.831982,18.9239969 L671.542556,18.9282531 C666.429925,18.9267428 662.243511,14.8634894 662.089396,9.75319688 L662.084428,9.46377188 C662.081154,4.33217859 666.169367,0.133511981 671.29924,0 L671.542556,0 Z M633.709343,0 C638.821832,0.00148720399 643.008347,4.0642197 643.163212,9.17434688 L643.168179,9.46377188 C643.170223,14.5768535 639.109438,18.7664299 633.998769,18.9239969 L633.709343,18.9282531 C628.595361,18.9282531 624.406825,14.8648164 624.251924,9.75319688 L624.251924,9.46377188 C624.24863,4.33271556 628.336001,0.134267444 633.465317,0 L633.709343,0 Z M595.876839,0 C600.989327,0.00148720399 605.175843,4.0642197 605.330708,9.17434688 L605.334965,9.46377188 C605.33701,14.5768535 601.276224,18.7664299 596.165555,18.9239969 L595.876839,18.9282531 C590.763932,18.9271261 586.577092,14.8637645 586.422969,9.75319688 L586.418711,9.46377188 C586.415417,4.33271556 590.502787,0.134267444 595.632103,0 L595.876839,0 Z" id="形状结合-2"></path>
            </g>
        </g>
    </g>
</svg>