<?xml version="1.0" encoding="UTF-8"?>
<svg width="64px" height="14px" viewBox="0 0 64 14" version="1.1" xmlns="http://www.w3.org/2000/svg" xmlns:xlink="http://www.w3.org/1999/xlink">
    <title>钻石会员</title>
    <defs>
        <path d="M7,0.777777778 C3.56356156,0.777777778 0.777777778,3.56356156 0.777777778,7 C0.777777778,10.4364384 3.56356156,13.2222222 7,13.2222222 C10.4364384,13.2222222 13.2222222,10.4364384 13.2222222,7 C13.2222222,5.34976406 12.5666685,3.76711749 11.3997755,2.60022447 C10.2328825,1.43333145 8.65023594,0.777777778 7,0.777777778 Z M10.5127556,4.75657778 L6.30155556,10.1409778 C6.25751908,10.1972465 6.19007408,10.2301661 6.11862222,10.2302667 L4.76404444,10.2302667 C4.63554205,10.2300958 4.53136478,10.1260576 4.53102222,9.99755556 L4.53102222,5.68555556 C4.53085084,5.55710381 4.42676285,5.45301583 4.29831111,5.45284444 L3.62973333,5.45284444 C3.5014536,5.45250145 3.39764444,5.34841353 3.39764444,5.22013333 L3.39764444,4.61191111 C3.39789148,4.55027464 3.42261365,4.49126084 3.46637225,4.44785231 C3.51013084,4.40444378 3.56934132,4.38019641 3.63097778,4.38044256 L5.83737778,4.38044256 C5.96590058,4.38044256 6.07008889,4.48463276 6.07008889,4.61315556 L6.07008889,6.47671111 C6.06995749,6.57451106 6.13098926,6.6619574 6.22283387,6.69556418 C6.31467847,6.72917095 6.41773532,6.70176613 6.48075556,6.62697778 L8.30791111,4.4632 C8.35220692,4.41083117 8.4172766,4.38057149 8.48586667,4.38044256 L10.3292,4.38044256 C10.4182595,4.38033159 10.4995728,4.43105766 10.5386317,4.51109524 C10.5776905,4.59113282 10.567644,4.6864431 10.5127556,4.75657778 L10.5127556,4.75657778 Z" id="path-1"></path>
        <filter x="-4.0%" y="-4.0%" width="108.0%" height="108.0%" filterUnits="objectBoundingBox" id="filter-2">
            <feGaussianBlur stdDeviation="0.5" in="SourceAlpha" result="shadowBlurInner1"></feGaussianBlur>
            <feOffset dx="0" dy="0" in="shadowBlurInner1" result="shadowOffsetInner1"></feOffset>
            <feComposite in="shadowOffsetInner1" in2="SourceAlpha" operator="arithmetic" k2="-1" k3="1" result="shadowInnerInner1"></feComposite>
            <feColorMatrix values="0 0 0 0 0.583835185   0 0 0 0 0.56404376   0 0 0 0 0.930860281  0 0 0 0.404119318 0" type="matrix" in="shadowInnerInner1"></feColorMatrix>
        </filter>
    </defs>
    <g id="控件" stroke="none" stroke-width="1" fill="none" fill-rule="evenodd">
        <g id="ICON/会员等级/钻石" transform="translate(0.000000, -1.000000)">
            <g id="钻石会员" transform="translate(0.000000, 1.000000)">
                <g id="会员等级">
                    <circle id="椭圆形" fill="#BFBDF3" cx="7" cy="7" r="7"></circle>
                    <circle id="椭圆形" fill="#FFFFFF" cx="7" cy="7" r="5.44444444"></circle>
                    <g id="形状" fill-rule="nonzero">
                        <use fill="#9490E7" xlink:href="#path-1"></use>
                        <use fill="black" fill-opacity="1" filter="url(#filter-2)" xlink:href="#path-1"></use>
                    </g>
                </g>
                <g id="星钻会员" transform="translate(16.624000, 1.548000)" fill="#635ED9" fill-rule="nonzero">
                    <path d="M10.752,9.408 L10.752,10.452 L0.204,10.452 L0.204,9.408 L5.184,9.408 L5.184,8.46 L1.524,8.46 L1.524,7.404 L5.184,7.404 L5.184,6.528 L2.1,6.528 C1.668,7.144 1.156,7.64 0.564,8.016 L0,7.128 C0.816,6.616 1.432,5.82 1.848,4.74 L2.856,5.052 C2.84,5.108 2.784,5.248 2.688,5.472 L5.184,5.472 L5.184,4.644 L1.884,4.644 C1.74,4.644 1.616,4.594 1.512,4.494 C1.408,4.394 1.356,4.272 1.356,4.128 L1.356,0.78 C1.356,0.636 1.408,0.514 1.512,0.414 C1.616,0.314 1.74,0.264 1.884,0.264 L9.144,0.264 C9.288,0.264 9.412,0.314 9.516,0.414 C9.62,0.514 9.672,0.636 9.672,0.78 L9.672,4.128 C9.672,4.272 9.62,4.394 9.516,4.494 C9.412,4.594 9.288,4.644 9.144,4.644 L6.228,4.644 L6.228,5.472 L10.332,5.472 L10.332,6.528 L6.228,6.528 L6.228,7.404 L9.972,7.404 L9.972,8.46 L6.228,8.46 L6.228,9.408 L10.752,9.408 Z M2.412,1.308 L2.412,1.932 L8.616,1.932 L8.616,1.308 L2.412,1.308 Z M2.412,3.588 L8.616,3.588 L8.616,2.976 L2.412,2.976 L2.412,3.588 Z" id="形状"></path>
                    <path d="M14.808,9.408 C15.248,9.2 15.684,8.892 16.116,8.484 L16.836,9.252 C16.42,9.628 16.006,9.938 15.594,10.182 C15.182,10.426 14.756,10.584 14.316,10.656 L14.28,10.656 C14.168,10.656 14.044,10.608 13.908,10.512 C13.804,10.408 13.752,10.28 13.752,10.128 L13.752,6.768 L12.408,6.768 L12.408,5.724 L13.752,5.724 L13.752,4.452 L12.768,4.452 L12.768,3.672 L12.576,3.876 L11.832,3.132 C12.56,2.396 13.152,1.368 13.608,0.048 L14.616,0.372 C14.512,0.676 14.404,0.96 14.292,1.224 L16.476,1.224 L16.476,2.28 L13.764,2.28 C13.508,2.72 13.252,3.096 12.996,3.408 L16.152,3.408 L16.152,4.452 L14.808,4.452 L14.808,5.724 L16.476,5.724 L16.476,6.768 L14.808,6.768 L14.808,9.408 Z M20.184,3.036 L20.184,4.992 L22.212,4.992 C22.356,4.992 22.478,5.044 22.578,5.148 C22.678,5.252 22.728,5.376 22.728,5.52 L22.728,10.404 L21.684,10.404 L21.684,10.116 L18.048,10.116 L18.048,10.404 L17.004,10.404 L17.004,5.52 C17.004,5.376 17.056,5.252 17.16,5.148 C17.264,5.044 17.388,4.992 17.532,4.992 L19.128,4.992 L19.128,0.216 L20.184,0.216 L20.184,1.98 L22.908,1.98 L22.908,3.036 L20.184,3.036 Z M21.684,6.036 L18.048,6.036 L18.048,9.06 L21.684,9.06 L21.684,6.036 Z" id="形状"></path>
                    <path d="M31.368,0.216 C31.92,0.936 32.474,1.546 33.03,2.046 C33.586,2.546 34.2,2.912 34.872,3.144 L34.584,4.152 C33.8,3.928 33.058,3.498 32.358,2.862 C31.658,2.226 31.096,1.62 30.672,1.044 L28.08,1.044 C27.6,1.66 27.022,2.276 26.346,2.892 C25.67,3.508 24.944,3.928 24.168,4.152 L23.88,3.144 C24.568,2.912 25.186,2.548 25.734,2.052 C26.282,1.556 26.832,0.944 27.384,0.216 C27.432,0.152 27.496,0.1 27.576,0.06 C27.656,0.02 27.736,0 27.816,0 L30.936,0 C31.024,0 31.106,0.02 31.182,0.06 C31.258,0.1 31.32,0.152 31.368,0.216 Z M32.616,3.12 L32.616,4.176 L26.136,4.176 L26.136,3.12 L32.616,3.12 Z M31.92,6.804 L34.26,10.104 L33.408,10.704 L32.604,9.576 C31.684,10 30.496,10.22 29.04,10.236 L25.488,10.236 C25.344,10.236 25.22,10.186 25.116,10.086 C25.012,9.986 24.96,9.86 24.96,9.708 L24.96,9.456 C24.96,9.272 25.028,9.132 25.164,9.036 C25.98,8.38 26.812,7.512 27.66,6.432 L24.696,6.432 L24.696,5.376 L34.044,5.376 L34.044,6.432 L28.992,6.432 C28.128,7.568 27.328,8.488 26.592,9.192 L29.04,9.192 C29.616,9.184 30.144,9.146 30.624,9.078 C31.104,9.01 31.556,8.888 31.98,8.712 L31.056,7.416 L31.92,6.804 Z" id="形状"></path>
                    <path d="M37.992,3.504 C37.848,3.504 37.726,3.452 37.626,3.348 C37.526,3.244 37.476,3.12 37.476,2.976 L37.476,0.696 C37.476,0.552 37.526,0.43 37.626,0.33 C37.726,0.23 37.848,0.18 37.992,0.18 L44.448,0.18 C44.6,0.18 44.726,0.23 44.826,0.33 C44.926,0.43 44.976,0.552 44.976,0.696 L44.976,2.976 C44.976,3.12 44.926,3.244 44.826,3.348 C44.726,3.452 44.6,3.504 44.448,3.504 L37.992,3.504 Z M38.52,2.46 L43.932,2.46 L43.932,1.224 L38.52,1.224 L38.52,2.46 Z M37.992,8.484 L36.948,8.484 L36.948,4.764 C36.948,4.612 36.998,4.486 37.098,4.386 C37.198,4.286 37.324,4.236 37.476,4.236 L45.144,4.236 C45.296,4.236 45.424,4.286 45.528,4.386 C45.632,4.486 45.684,4.612 45.684,4.764 L45.684,8.484 L44.616,8.484 L44.616,5.28 L37.992,5.28 L37.992,8.484 Z M46.044,10.5 L41.304,8.424 C40.792,8.992 40.048,9.45 39.072,9.798 C38.096,10.146 37.236,10.388 36.492,10.524 L36.288,9.504 C36.944,9.376 37.622,9.19 38.322,8.946 C39.022,8.702 39.608,8.424 40.08,8.112 C40.552,7.8 40.788,7.492 40.788,7.188 L40.788,5.592 L41.832,5.592 L41.832,7.188 C41.832,7.26 41.824,7.36 41.808,7.488 L46.464,9.528 L46.044,10.5 Z" id="形状"></path>
                </g>
            </g>
        </g>
    </g>
</svg>