<?xml version="1.0" encoding="UTF-8"?>
<svg width="64px" height="14px" viewBox="0 0 64 14" version="1.1" xmlns="http://www.w3.org/2000/svg" xmlns:xlink="http://www.w3.org/1999/xlink">
    <title>银牌会员</title>
    <defs>
        <path d="M7,0.777777778 C3.56356156,0.777777778 0.777777778,3.56356156 0.777777778,7 C0.777777778,10.4364384 3.56356156,13.2222222 7,13.2222222 C10.4364384,13.2222222 13.2222222,10.4364384 13.2222222,7 C13.2222222,5.34976406 12.5666685,3.76711749 11.3997755,2.60022447 C10.2328825,1.43333145 8.65023594,0.777777778 7,0.777777778 Z M10.5127556,4.75657778 L6.30155556,10.1409778 C6.25751908,10.1972465 6.19007408,10.2301661 6.11862222,10.2302667 L4.76404444,10.2302667 C4.63554205,10.2300958 4.53136478,10.1260576 4.53102222,9.99755556 L4.53102222,5.68555556 C4.53085084,5.55710381 4.42676285,5.45301583 4.29831111,5.45284444 L3.62973333,5.45284444 C3.5014536,5.45250145 3.39764444,5.34841353 3.39764444,5.22013333 L3.39764444,4.61191111 C3.39789148,4.55027464 3.42261365,4.49126084 3.46637225,4.44785231 C3.51013084,4.40444378 3.56934132,4.38019641 3.63097778,4.38044256 L5.83737778,4.38044256 C5.96590058,4.38044256 6.07008889,4.48463276 6.07008889,4.61315556 L6.07008889,6.47671111 C6.06995749,6.57451106 6.13098926,6.6619574 6.22283387,6.69556418 C6.31467847,6.72917095 6.41773532,6.70176613 6.48075556,6.62697778 L8.30791111,4.4632 C8.35220692,4.41083117 8.4172766,4.38057149 8.48586667,4.38044256 L10.3292,4.38044256 C10.4182595,4.38033159 10.4995728,4.43105766 10.5386317,4.51109524 C10.5776905,4.59113282 10.567644,4.6864431 10.5127556,4.75657778 L10.5127556,4.75657778 Z" id="path-1"></path>
        <filter x="-4.0%" y="-4.0%" width="108.0%" height="108.0%" filterUnits="objectBoundingBox" id="filter-2">
            <feGaussianBlur stdDeviation="0.5" in="SourceAlpha" result="shadowBlurInner1"></feGaussianBlur>
            <feOffset dx="0" dy="0" in="shadowBlurInner1" result="shadowOffsetInner1"></feOffset>
            <feComposite in="shadowOffsetInner1" in2="SourceAlpha" operator="arithmetic" k2="-1" k3="1" result="shadowInnerInner1"></feComposite>
            <feColorMatrix values="0 0 0 0 0.637364566   0 0 0 0 0.784718692   0 0 0 0 0.91864723  0 0 0 0.603256119 0" type="matrix" in="shadowInnerInner1"></feColorMatrix>
        </filter>
    </defs>
    <g id="控件" stroke="none" stroke-width="1" fill="none" fill-rule="evenodd">
        <g id="ICON/会员等级/银牌" transform="translate(0.000000, -1.000000)">
            <g id="银牌会员" transform="translate(0.000000, 1.000000)">
                <g id="会员等级">
                    <circle id="椭圆形" fill="#C9DEF4" cx="7" cy="7" r="7"></circle>
                    <circle id="椭圆形" fill="#FFFFFF" cx="7" cy="7" r="5.44444444"></circle>
                    <g id="形状" fill-rule="nonzero">
                        <use fill="#AAC7E7" xlink:href="#path-1"></use>
                        <use fill="black" fill-opacity="1" filter="url(#filter-2)" xlink:href="#path-1"></use>
                    </g>
                </g>
                <g transform="translate(16.420000, 1.368000)" fill="#2C80DA" fill-rule="nonzero" id="形状">
                    <path d="M2.808,9.456 C3.136,9.272 3.5,8.98 3.9,8.58 L4.644,9.312 C4.26,9.696 3.88,10.01 3.504,10.254 C3.128,10.498 2.728,10.652 2.304,10.716 L2.28,10.728 C2.136,10.728 2.016,10.68 1.92,10.584 C1.808,10.488 1.752,10.36 1.752,10.2 L1.752,6.84 L0.588,6.84 L0.588,5.796 L1.752,5.796 L1.752,4.536 L0.9,4.536 L0.9,3.792 L0.78,3.936 L0,3.216 C0.672,2.456 1.212,1.432 1.62,0.144 L2.628,0.42 C2.564,0.652 2.464,0.944 2.328,1.296 L4.272,1.296 L4.272,2.34 L1.86,2.34 C1.652,2.748 1.412,3.132 1.14,3.492 L3.984,3.492 L3.984,4.536 L2.808,4.536 L2.808,5.796 L4.272,5.796 L4.272,6.84 L2.808,6.84 L2.808,9.456 Z M5.712,9.672 C6.264,9.464 6.732,9.216 7.116,8.928 L7.728,9.768 C7.024,10.28 6.22,10.656 5.316,10.896 C5.244,10.92 5.204,10.932 5.196,10.932 C5.084,10.932 4.976,10.888 4.872,10.8 C4.736,10.688 4.668,10.552 4.668,10.392 L4.668,1.152 C4.668,1.008 4.72,0.886 4.824,0.786 C4.928,0.686 5.052,0.636 5.196,0.636 L9.648,0.636 C9.792,0.636 9.916,0.686 10.02,0.786 C10.124,0.886 10.176,1.008 10.176,1.152 L10.176,5.544 C10.176,5.688 10.124,5.812 10.02,5.916 C9.916,6.02 9.792,6.072 9.648,6.072 L5.712,6.072 L5.712,9.672 Z M5.712,1.68 L5.712,2.892 L9.108,2.892 L9.108,1.68 L5.712,1.68 Z M9.108,5.016 L9.108,3.948 L5.712,3.948 L5.712,5.016 L9.108,5.016 Z M9.156,8.532 C9.748,9.124 10.416,9.564 11.16,9.852 L10.752,10.836 C9.784,10.444 8.944,9.858 8.232,9.078 C7.52,8.298 7.016,7.42 6.72,6.444 L7.752,6.192 C7.904,6.728 8.148,7.236 8.484,7.716 C9.06,7.34 9.556,6.88 9.972,6.336 L10.848,6.9 C10.416,7.524 9.852,8.068 9.156,8.532 Z"></path>
                    <path d="M23.208,8.904 L20.952,8.904 L20.952,10.98 L19.896,10.98 L19.896,8.904 L16.464,8.904 L16.464,7.848 L17.292,7.848 L16.932,7.128 C17.348,6.888 17.716,6.608 18.036,6.288 L17.328,6.288 C17.184,6.288 17.062,6.238 16.962,6.138 C16.862,6.038 16.812,5.916 16.812,5.772 L16.812,1.488 C16.812,1.344 16.862,1.22 16.962,1.116 C17.062,1.012 17.184,0.96 17.328,0.96 L18.288,0.96 L18.948,0 L19.812,0.588 L19.56,0.96 L22.236,0.96 C22.38,0.96 22.502,1.012 22.602,1.116 C22.702,1.22 22.752,1.344 22.752,1.488 L22.752,5.772 C22.752,5.916 22.702,6.038 22.602,6.138 C22.502,6.238 22.38,6.288 22.236,6.288 L19.428,6.288 C18.996,6.896 18.448,7.416 17.784,7.848 L19.896,7.848 L19.896,6.6 L20.952,6.6 L20.952,7.848 L23.208,7.848 L23.208,8.904 Z M15.588,5.244 C15.74,5.244 15.866,5.294 15.966,5.394 C16.066,5.494 16.116,5.62 16.116,5.772 L16.116,10.98 L15.072,10.98 L15.072,6.288 L13.92,6.288 L13.92,7.884 C13.92,8.46 13.812,9.02 13.596,9.564 C13.38,10.108 13.08,10.604 12.696,11.052 L11.94,10.332 C12.228,9.98 12.454,9.592 12.618,9.168 C12.782,8.744 12.864,8.316 12.864,7.884 L12.864,0.648 L13.92,0.648 L13.92,3.156 L14.796,3.156 L14.796,0.456 L15.84,0.456 L15.84,3.156 L16.572,3.156 L16.572,4.212 L13.92,4.212 L13.92,5.244 L15.588,5.244 Z M17.856,2.016 L17.856,3.108 L19.248,3.108 L19.248,2.016 L17.856,2.016 Z M21.708,2.016 L20.304,2.016 L20.304,3.108 L21.708,3.108 L21.708,2.016 Z M17.856,5.244 L18.828,5.244 C19.02,4.9 19.148,4.536 19.212,4.152 L17.856,4.152 L17.856,5.244 Z M21.708,5.244 L21.708,4.152 L20.28,4.152 C20.232,4.528 20.136,4.892 19.992,5.244 L21.708,5.244 Z"></path>
                    <path d="M31.572,0.396 C32.124,1.116 32.678,1.726 33.234,2.226 C33.79,2.726 34.404,3.092 35.076,3.324 L34.788,4.332 C34.004,4.108 33.262,3.678 32.562,3.042 C31.862,2.406 31.3,1.8 30.876,1.224 L28.284,1.224 C27.804,1.84 27.226,2.456 26.55,3.072 C25.874,3.688 25.148,4.108 24.372,4.332 L24.084,3.324 C24.772,3.092 25.39,2.728 25.938,2.232 C26.486,1.736 27.036,1.124 27.588,0.396 C27.636,0.332 27.7,0.28 27.78,0.24 C27.86,0.2 27.94,0.18 28.02,0.18 L31.14,0.18 C31.228,0.18 31.31,0.2 31.386,0.24 C31.462,0.28 31.524,0.332 31.572,0.396 Z M32.82,3.3 L32.82,4.356 L26.34,4.356 L26.34,3.3 L32.82,3.3 Z M32.124,6.984 L34.464,10.284 L33.612,10.884 L32.808,9.756 C31.888,10.18 30.7,10.4 29.244,10.416 L25.692,10.416 C25.548,10.416 25.424,10.366 25.32,10.266 C25.216,10.166 25.164,10.04 25.164,9.888 L25.164,9.636 C25.164,9.452 25.232,9.312 25.368,9.216 C26.184,8.56 27.016,7.692 27.864,6.612 L24.9,6.612 L24.9,5.556 L34.248,5.556 L34.248,6.612 L29.196,6.612 C28.332,7.748 27.532,8.668 26.796,9.372 L29.244,9.372 C29.82,9.364 30.348,9.326 30.828,9.258 C31.308,9.19 31.76,9.068 32.184,8.892 L31.26,7.596 L32.124,6.984 Z"></path>
                    <path d="M38.196,3.684 C38.052,3.684 37.93,3.632 37.83,3.528 C37.73,3.424 37.68,3.3 37.68,3.156 L37.68,0.876 C37.68,0.732 37.73,0.61 37.83,0.51 C37.93,0.41 38.052,0.36 38.196,0.36 L44.652,0.36 C44.804,0.36 44.93,0.41 45.03,0.51 C45.13,0.61 45.18,0.732 45.18,0.876 L45.18,3.156 C45.18,3.3 45.13,3.424 45.03,3.528 C44.93,3.632 44.804,3.684 44.652,3.684 L38.196,3.684 Z M38.724,2.64 L44.136,2.64 L44.136,1.404 L38.724,1.404 L38.724,2.64 Z M38.196,8.664 L37.152,8.664 L37.152,4.944 C37.152,4.792 37.202,4.666 37.302,4.566 C37.402,4.466 37.528,4.416 37.68,4.416 L45.348,4.416 C45.5,4.416 45.628,4.466 45.732,4.566 C45.836,4.666 45.888,4.792 45.888,4.944 L45.888,8.664 L44.82,8.664 L44.82,5.46 L38.196,5.46 L38.196,8.664 Z M46.248,10.68 L41.508,8.604 C40.996,9.172 40.252,9.63 39.276,9.978 C38.3,10.326 37.44,10.568 36.696,10.704 L36.492,9.684 C37.148,9.556 37.826,9.37 38.526,9.126 C39.226,8.882 39.812,8.604 40.284,8.292 C40.756,7.98 40.992,7.672 40.992,7.368 L40.992,5.772 L42.036,5.772 L42.036,7.368 C42.036,7.44 42.028,7.54 42.012,7.668 L46.668,9.708 L46.248,10.68 Z"></path>
                </g>
            </g>
        </g>
    </g>
</svg>