<?xml version="1.0" encoding="UTF-8"?>
<svg width="64px" height="14px" viewBox="0 0 64 14" version="1.1" xmlns="http://www.w3.org/2000/svg" xmlns:xlink="http://www.w3.org/1999/xlink">
    <title>普通会员</title>
    <defs>
        <path d="M7,0.777777778 C3.56356156,0.777777778 0.777777778,3.56356156 0.777777778,7 C0.777777778,10.4364384 3.56356156,13.2222222 7,13.2222222 C10.4364384,13.2222222 13.2222222,10.4364384 13.2222222,7 C13.2222222,5.34976406 12.5666685,3.76711749 11.3997755,2.60022447 C10.2328825,1.43333145 8.65023594,0.777777778 7,0.777777778 Z M10.5127556,4.75657778 L6.30155556,10.1409778 C6.25751908,10.1972465 6.19007408,10.2301661 6.11862222,10.2302667 L4.76404444,10.2302667 C4.63554205,10.2300958 4.53136478,10.1260576 4.53102222,9.99755556 L4.53102222,5.68555556 C4.53085084,5.55710381 4.42676285,5.45301583 4.29831111,5.45284444 L3.62973333,5.45284444 C3.5014536,5.45250145 3.39764444,5.34841353 3.39764444,5.22013333 L3.39764444,4.61191111 C3.39789148,4.55027464 3.42261365,4.49126084 3.46637225,4.44785231 C3.51013084,4.40444378 3.56934132,4.38019641 3.63097778,4.38044256 L5.83737778,4.38044256 C5.96590058,4.38044256 6.07008889,4.48463276 6.07008889,4.61315556 L6.07008889,6.47671111 C6.06995749,6.57451106 6.13098926,6.6619574 6.22283387,6.69556418 C6.31467847,6.72917095 6.41773532,6.70176613 6.48075556,6.62697778 L8.30791111,4.4632 C8.35220692,4.41083117 8.4172766,4.38057149 8.48586667,4.38044256 L10.3292,4.38044256 C10.4182595,4.38033159 10.4995728,4.43105766 10.5386317,4.51109524 C10.5776905,4.59113282 10.567644,4.6864431 10.5127556,4.75657778 L10.5127556,4.75657778 Z" id="path-1"></path>
        <filter x="-4.0%" y="-4.0%" width="108.0%" height="108.0%" filterUnits="objectBoundingBox" id="filter-2">
            <feGaussianBlur stdDeviation="0.5" in="SourceAlpha" result="shadowBlurInner1"></feGaussianBlur>
            <feOffset dx="0" dy="0" in="shadowBlurInner1" result="shadowOffsetInner1"></feOffset>
            <feComposite in="shadowOffsetInner1" in2="SourceAlpha" operator="arithmetic" k2="-1" k3="1" result="shadowInnerInner1"></feComposite>
            <feColorMatrix values="0 0 0 0 0.746456812   0 0 0 0 0.77938073   0 0 0 0 0.819095335  0 0 0 0.5292559 0" type="matrix" in="shadowInnerInner1"></feColorMatrix>
        </filter>
    </defs>
    <g id="控件" stroke="none" stroke-width="1" fill="none" fill-rule="evenodd">
        <g id="ICON/会员等级/普通" transform="translate(0.000000, -1.000000)">
            <g id="普通会员" transform="translate(0.000000, 1.000000)">
                <g id="会员等级">
                    <circle id="椭圆形" fill="#D1D8E2" cx="7" cy="7" r="7"></circle>
                    <circle id="椭圆形" fill="#FFFFFF" cx="7" cy="7" r="5.44444444"></circle>
                    <g id="形状" fill-rule="nonzero">
                        <use fill="#C3CAD4" xlink:href="#path-1"></use>
                        <use fill="black" fill-opacity="1" filter="url(#filter-2)" xlink:href="#path-1"></use>
                    </g>
                </g>
                <g transform="translate(16.576000, 1.452000)" fill="#666666" fill-rule="nonzero" id="形状">
                    <path d="M10.836,4.488 L10.836,5.544 L0,5.544 L0,4.488 L1.812,4.488 L1.02,2.652 L1.992,2.232 L2.772,4.08 L1.836,4.488 L3.612,4.488 L3.612,2.064 L0.432,2.064 L0.432,1.008 L2.94,1.008 L2.664,0.576 L3.552,0 L4.188,1.008 L6.768,1.008 L7.416,0 L8.292,0.564 L8.016,1.008 L10.452,1.008 L10.452,2.064 L7.344,2.064 L7.344,4.488 L9.06,4.488 L8.112,4.08 L8.904,2.232 L9.864,2.652 L9.084,4.488 L10.836,4.488 Z M4.668,4.488 L6.3,4.488 L6.3,2.064 L4.668,2.064 L4.668,4.488 Z M8.988,6.144 C9.132,6.144 9.254,6.194 9.354,6.294 C9.454,6.394 9.504,6.516 9.504,6.66 L9.504,10.884 L8.46,10.884 L8.46,10.68 L2.436,10.68 L2.436,10.884 L1.368,10.884 L1.368,6.66 C1.368,6.516 1.42,6.394 1.524,6.294 C1.628,6.194 1.752,6.144 1.896,6.144 L8.988,6.144 Z M2.436,7.188 L2.436,7.836 L8.46,7.836 L8.46,7.188 L2.436,7.188 Z M8.46,9.612 L8.46,8.88 L2.436,8.88 L2.436,9.612 L8.46,9.612 Z"></path>
                    <path d="M13.86,2.592 L12.756,0.876 L13.644,0.3 L14.748,2.016 L13.86,2.592 Z M18.996,2.556 C19.716,2.26 20.308,1.856 20.772,1.344 L15.552,1.344 L15.552,0.3 L21.672,0.3 C21.816,0.3 21.94,0.352 22.044,0.456 C22.148,0.56 22.2,0.684 22.2,0.828 L22.2,1.008 C22.2,1.088 22.18,1.164 22.14,1.236 C21.852,1.764 21.448,2.228 20.928,2.628 L21.672,2.628 C21.816,2.628 21.94,2.68 22.044,2.784 C22.148,2.888 22.2,3.012 22.2,3.156 L22.2,7.632 C22.2,8.096 22.02,8.458 21.66,8.718 C21.3,8.978 20.912,9.14 20.496,9.204 L20.34,8.172 C20.508,8.132 20.684,8.066 20.868,7.974 C21.052,7.882 21.144,7.768 21.144,7.632 L21.144,7.344 L19.428,7.344 L19.428,8.82 L18.372,8.82 L18.372,7.344 L16.632,7.344 L16.632,8.964 L15.588,8.964 L15.588,3.156 C15.588,3.012 15.64,2.888 15.744,2.784 C15.848,2.68 15.972,2.628 16.116,2.628 L17.46,2.628 L16.98,2.22 L17.664,1.416 L18.996,2.556 Z M22.836,9.42 L22.836,10.488 L16.02,10.488 C15.556,10.488 15.144,10.396 14.784,10.212 C14.424,10.028 14.124,9.792 13.884,9.504 C13.524,9.968 13.024,10.332 12.384,10.596 L12.012,9.612 C12.868,9.22 13.304,8.728 13.32,8.136 L13.32,4.464 L12.204,4.464 L12.204,3.42 L13.848,3.42 C13.992,3.42 14.116,3.472 14.22,3.576 C14.324,3.68 14.376,3.804 14.376,3.948 L14.376,8.136 C14.376,8.216 14.372,8.28 14.364,8.328 C14.492,8.656 14.712,8.924 15.024,9.132 C15.336,9.34 15.668,9.436 16.02,9.42 L22.836,9.42 Z M16.632,3.684 L16.632,4.488 L18.372,4.488 L18.372,3.684 L16.632,3.684 Z M21.144,3.684 L19.428,3.684 L19.428,4.488 L21.144,4.488 L21.144,3.684 Z M18.372,6.288 L18.372,5.532 L16.632,5.532 L16.632,6.288 L18.372,6.288 Z M21.144,6.288 L21.144,5.532 L19.428,5.532 L19.428,6.288 L21.144,6.288 Z"></path>
                    <path d="M31.416,0.312 C31.968,1.032 32.522,1.642 33.078,2.142 C33.634,2.642 34.248,3.008 34.92,3.24 L34.632,4.248 C33.848,4.024 33.106,3.594 32.406,2.958 C31.706,2.322 31.144,1.716 30.72,1.14 L28.128,1.14 C27.648,1.756 27.07,2.372 26.394,2.988 C25.718,3.604 24.992,4.024 24.216,4.248 L23.928,3.24 C24.616,3.008 25.234,2.644 25.782,2.148 C26.33,1.652 26.88,1.04 27.432,0.312 C27.48,0.248 27.544,0.196 27.624,0.156 C27.704,0.116 27.784,0.096 27.864,0.096 L30.984,0.096 C31.072,0.096 31.154,0.116 31.23,0.156 C31.306,0.196 31.368,0.248 31.416,0.312 Z M32.664,3.216 L32.664,4.272 L26.184,4.272 L26.184,3.216 L32.664,3.216 Z M31.968,6.9 L34.308,10.2 L33.456,10.8 L32.652,9.672 C31.732,10.096 30.544,10.316 29.088,10.332 L25.536,10.332 C25.392,10.332 25.268,10.282 25.164,10.182 C25.06,10.082 25.008,9.956 25.008,9.804 L25.008,9.552 C25.008,9.368 25.076,9.228 25.212,9.132 C26.028,8.476 26.86,7.608 27.708,6.528 L24.744,6.528 L24.744,5.472 L34.092,5.472 L34.092,6.528 L29.04,6.528 C28.176,7.664 27.376,8.584 26.64,9.288 L29.088,9.288 C29.664,9.28 30.192,9.242 30.672,9.174 C31.152,9.106 31.604,8.984 32.028,8.808 L31.104,7.512 L31.968,6.9 Z"></path>
                    <path d="M38.04,3.6 C37.896,3.6 37.774,3.548 37.674,3.444 C37.574,3.34 37.524,3.216 37.524,3.072 L37.524,0.792 C37.524,0.648 37.574,0.526 37.674,0.426 C37.774,0.326 37.896,0.276 38.04,0.276 L44.496,0.276 C44.648,0.276 44.774,0.326 44.874,0.426 C44.974,0.526 45.024,0.648 45.024,0.792 L45.024,3.072 C45.024,3.216 44.974,3.34 44.874,3.444 C44.774,3.548 44.648,3.6 44.496,3.6 L38.04,3.6 Z M38.568,2.556 L43.98,2.556 L43.98,1.32 L38.568,1.32 L38.568,2.556 Z M38.04,8.58 L36.996,8.58 L36.996,4.86 C36.996,4.708 37.046,4.582 37.146,4.482 C37.246,4.382 37.372,4.332 37.524,4.332 L45.192,4.332 C45.344,4.332 45.472,4.382 45.576,4.482 C45.68,4.582 45.732,4.708 45.732,4.86 L45.732,8.58 L44.664,8.58 L44.664,5.376 L38.04,5.376 L38.04,8.58 Z M46.092,10.596 L41.352,8.52 C40.84,9.088 40.096,9.546 39.12,9.894 C38.144,10.242 37.284,10.484 36.54,10.62 L36.336,9.6 C36.992,9.472 37.67,9.286 38.37,9.042 C39.07,8.798 39.656,8.52 40.128,8.208 C40.6,7.896 40.836,7.588 40.836,7.284 L40.836,5.688 L41.88,5.688 L41.88,7.284 C41.88,7.356 41.872,7.456 41.856,7.584 L46.512,9.624 L46.092,10.596 Z"></path>
                </g>
            </g>
        </g>
    </g>
</svg>